<svg width="388" height="188" viewBox="0 0 388 188" fill="none" xmlns="http://www.w3.org/2000/svg">
<g filter="url(#filter0_d_136_172)">
<rect x="4" y="3" width="380" height="180" rx="20" fill="white" shape-rendering="crispEdges"/>
<path d="M40.46 53.2C39.46 53.2 38.5533 53.0533 37.74 52.76C36.94 52.4533 36.2867 52.0267 35.78 51.48C35.2867 50.92 35 50.26 34.92 49.5C34.9067 49.38 34.94 49.28 35.02 49.2C35.1133 49.12 35.22 49.08 35.34 49.08H37.18C37.3133 49.08 37.4133 49.1133 37.48 49.18C37.56 49.2333 37.6333 49.3267 37.7 49.46C37.8467 49.8733 38.14 50.22 38.58 50.5C39.02 50.78 39.6333 50.92 40.42 50.92C41.3533 50.92 42.08 50.62 42.6 50.02C43.12 49.4067 43.38 48.5533 43.38 47.46V47.08H39C38.8667 47.08 38.7533 47.0333 38.66 46.94C38.5667 46.8333 38.52 46.7067 38.52 46.56V45.42C38.52 45.2733 38.5667 45.1533 38.66 45.06C38.7533 44.9667 38.8667 44.92 39 44.92H43.38V44.56C43.38 43.3733 43.12 42.5 42.6 41.94C42.08 41.38 41.3533 41.1 40.42 41.1C39.6333 41.1 39.02 41.2467 38.58 41.54C38.14 41.82 37.8667 42.16 37.76 42.56C37.6933 42.6933 37.6267 42.7933 37.56 42.86C37.4933 42.9133 37.38 42.94 37.22 42.94H35.38C35.26 42.94 35.1533 42.9 35.06 42.82C34.98 42.74 34.9467 42.64 34.96 42.52C35.0533 41.72 35.3467 41.0467 35.84 40.5C36.3333 39.9533 36.9733 39.5333 37.76 39.24C38.56 38.9467 39.46 38.8 40.46 38.8C41.5667 38.8 42.5467 39 43.4 39.4C44.2533 39.8 44.9267 40.4333 45.42 41.3C45.9133 42.1533 46.1867 43.2667 46.24 44.64C46.2533 45 46.26 45.32 46.26 45.6C46.26 45.88 46.26 46.16 46.26 46.44C46.26 46.7067 46.2533 47.0133 46.24 47.36C46.1867 48.7467 45.9133 49.8667 45.42 50.72C44.9267 51.5733 44.2533 52.2 43.4 52.6C42.56 53 41.58 53.2 40.46 53.2ZM49.1203 53C48.987 53 48.8736 52.9533 48.7803 52.86C48.687 52.7667 48.6403 52.6533 48.6403 52.52V43.08C48.6403 42.9467 48.687 42.8333 48.7803 42.74C48.8736 42.6467 48.987 42.6 49.1203 42.6H50.7603C50.8936 42.6 51.007 42.6467 51.1003 42.74C51.1936 42.8333 51.2403 42.9467 51.2403 43.08V46.66H52.6803L55.1203 42.92C55.1736 42.8267 55.2403 42.7533 55.3203 42.7C55.4136 42.6333 55.5336 42.6 55.6803 42.6H57.4603C57.5936 42.6 57.7003 42.6333 57.7803 42.7C57.8603 42.7667 57.9003 42.8533 57.9003 42.96C57.9003 43 57.887 43.0467 57.8603 43.1C57.847 43.14 57.827 43.18 57.8003 43.22L54.9203 47.6L58.2203 52.38C58.287 52.46 58.3203 52.5467 58.3203 52.64C58.3203 52.7467 58.2803 52.8333 58.2003 52.9C58.1203 52.9667 58.0203 53 57.9003 53H55.8803C55.747 53 55.6336 52.9733 55.5403 52.92C55.4603 52.8667 55.387 52.7933 55.3203 52.7L52.6803 48.78H51.2403V52.52C51.2403 52.6533 51.1936 52.7667 51.1003 52.86C51.007 52.9533 50.8936 53 50.7603 53H49.1203ZM64.6661 53.2C63.5994 53.2 62.6994 53.0133 61.9661 52.64C61.2461 52.2667 60.6928 51.74 60.3061 51.06C59.9328 50.38 59.7194 49.5867 59.6661 48.68C59.6528 48.44 59.6461 48.1467 59.6461 47.8C59.6461 47.4533 59.6528 47.16 59.6661 46.92C59.7194 46 59.9394 45.2067 60.3261 44.54C60.7261 43.86 61.2861 43.3333 62.0061 42.96C62.7394 42.5867 63.6261 42.4 64.6661 42.4C65.7061 42.4 66.5861 42.5867 67.3061 42.96C68.0394 43.3333 68.5994 43.86 68.9861 44.54C69.3861 45.2067 69.6128 46 69.6661 46.92C69.6794 47.16 69.6861 47.4533 69.6861 47.8C69.6861 48.1467 69.6794 48.44 69.6661 48.68C69.6128 49.5867 69.3928 50.38 69.0061 51.06C68.6328 51.74 68.0794 52.2667 67.3461 52.64C66.6261 53.0133 65.7328 53.2 64.6661 53.2ZM64.6661 51.22C65.3728 51.22 65.9194 51 66.3061 50.56C66.6928 50.1067 66.9061 49.4467 66.9461 48.58C66.9594 48.38 66.9661 48.12 66.9661 47.8C66.9661 47.48 66.9594 47.22 66.9461 47.02C66.9061 46.1667 66.6928 45.5133 66.3061 45.06C65.9194 44.6067 65.3728 44.38 64.6661 44.38C63.9594 44.38 63.4128 44.6067 63.0261 45.06C62.6394 45.5133 62.4261 46.1667 62.3861 47.02C62.3728 47.22 62.3661 47.48 62.3661 47.8C62.3661 48.12 62.3728 48.38 62.3861 48.58C62.4261 49.4467 62.6394 50.1067 63.0261 50.56C63.4128 51 63.9594 51.22 64.6661 51.22ZM72.382 53C72.2487 53 72.1354 52.9533 72.042 52.86C71.9487 52.7667 71.902 52.6533 71.902 52.52V43.08C71.902 42.9467 71.9487 42.8333 72.042 42.74C72.1354 42.6467 72.2487 42.6 72.382 42.6H74.042C74.1887 42.6 74.302 42.6467 74.382 42.74C74.4754 42.8333 74.522 42.9467 74.522 43.08V46.66H79.042V43.08C79.042 42.9467 79.0887 42.8333 79.182 42.74C79.2754 42.6467 79.3887 42.6 79.522 42.6H81.182C81.3154 42.6 81.4287 42.6467 81.522 42.74C81.6154 42.8333 81.662 42.9467 81.662 43.08V52.52C81.662 52.6533 81.6154 52.7667 81.522 52.86C81.4287 52.9533 81.3154 53 81.182 53H79.522C79.3887 53 79.2754 52.9533 79.182 52.86C79.0887 52.7667 79.042 52.6533 79.042 52.52V48.76H74.522V52.52C74.522 52.6533 74.4754 52.7667 74.382 52.86C74.302 52.9533 74.1887 53 74.042 53H72.382ZM88.963 53.2C87.8963 53.2 86.9963 53.0133 86.263 52.64C85.543 52.2667 84.9896 51.74 84.603 51.06C84.2296 50.38 84.0163 49.5867 83.963 48.68C83.9496 48.44 83.943 48.1467 83.943 47.8C83.943 47.4533 83.9496 47.16 83.963 46.92C84.0163 46 84.2363 45.2067 84.623 44.54C85.023 43.86 85.583 43.3333 86.303 42.96C87.0363 42.5867 87.923 42.4 88.963 42.4C90.003 42.4 90.883 42.5867 91.603 42.96C92.3363 43.3333 92.8963 43.86 93.283 44.54C93.683 45.2067 93.9096 46 93.963 46.92C93.9763 47.16 93.983 47.4533 93.983 47.8C93.983 48.1467 93.9763 48.44 93.963 48.68C93.9096 49.5867 93.6896 50.38 93.303 51.06C92.9296 51.74 92.3763 52.2667 91.643 52.64C90.923 53.0133 90.0296 53.2 88.963 53.2ZM88.963 51.22C89.6696 51.22 90.2163 51 90.603 50.56C90.9896 50.1067 91.203 49.4467 91.243 48.58C91.2563 48.38 91.263 48.12 91.263 47.8C91.263 47.48 91.2563 47.22 91.243 47.02C91.203 46.1667 90.9896 45.5133 90.603 45.06C90.2163 44.6067 89.6696 44.38 88.963 44.38C88.2563 44.38 87.7096 44.6067 87.323 45.06C86.9363 45.5133 86.723 46.1667 86.683 47.02C86.6696 47.22 86.663 47.48 86.663 47.8C86.663 48.12 86.6696 48.38 86.683 48.58C86.723 49.4467 86.9363 50.1067 87.323 50.56C87.7096 51 88.2563 51.22 88.963 51.22ZM96.6389 53C96.5056 53 96.3989 52.96 96.3189 52.88C96.2389 52.8 96.1989 52.7 96.1989 52.58V42.98C96.1989 42.8733 96.2389 42.7867 96.3189 42.72C96.4122 42.64 96.5056 42.6 96.5989 42.6H98.2789C98.5056 42.6 98.6789 42.7133 98.7989 42.94L101.879 48.54L104.959 42.94C105.079 42.7133 105.252 42.6 105.479 42.6H107.139C107.259 42.6 107.359 42.64 107.439 42.72C107.519 42.7867 107.559 42.8733 107.559 42.98V52.58C107.559 52.7 107.519 52.8 107.439 52.88C107.359 52.96 107.252 53 107.119 53H105.399C105.266 53 105.159 52.96 105.079 52.88C105.012 52.8 104.979 52.7 104.979 52.58V45.32L105.799 45.46L102.839 50.92C102.772 51.04 102.692 51.1533 102.599 51.26C102.506 51.3533 102.372 51.4 102.199 51.4H101.539C101.379 51.4 101.252 51.3533 101.159 51.26C101.066 51.1667 100.986 51.0533 100.919 50.92L98.0189 45.68L98.7789 45.56V52.58C98.7789 52.7 98.7389 52.8 98.6589 52.88C98.5789 52.96 98.4789 53 98.3589 53H96.6389ZM110.721 53C110.601 53 110.495 52.9533 110.401 52.86C110.308 52.7667 110.261 52.66 110.261 52.54V43.08C110.261 42.9467 110.308 42.8333 110.401 42.74C110.495 42.6467 110.608 42.6 110.741 42.6H112.401C112.548 42.6 112.661 42.6467 112.741 42.74C112.835 42.8333 112.881 42.9467 112.881 43.08V50.98L112.181 50.48L117.681 42.92C117.748 42.8267 117.821 42.7533 117.901 42.7C117.981 42.6333 118.088 42.6 118.221 42.6H119.741C119.861 42.6 119.968 42.6467 120.061 42.74C120.155 42.82 120.201 42.92 120.201 43.04V52.52C120.201 52.6533 120.155 52.7667 120.061 52.86C119.968 52.9533 119.855 53 119.721 53H118.061C117.915 53 117.795 52.9533 117.701 52.86C117.621 52.7667 117.581 52.6533 117.581 52.52V44.98L118.321 45.08L112.781 52.68C112.728 52.76 112.655 52.8333 112.561 52.9C112.481 52.9667 112.375 53 112.241 53H110.721ZM129.322 53C129.176 53 129.056 52.9533 128.962 52.86C128.882 52.7667 128.842 52.6533 128.842 52.52V49.46H126.862V49.36C125.516 49.36 124.502 49.0533 123.822 48.44C123.156 47.8133 122.822 46.9933 122.822 45.98C122.822 44.86 123.176 44.02 123.882 43.46C124.589 42.8867 125.609 42.6 126.942 42.6H131.022C131.156 42.6 131.269 42.6467 131.362 42.74C131.456 42.8333 131.502 42.9467 131.502 43.08V52.52C131.502 52.6533 131.456 52.7667 131.362 52.86C131.269 52.9533 131.156 53 131.022 53H129.322ZM122.922 53C122.802 53 122.702 52.96 122.622 52.88C122.542 52.8 122.502 52.7067 122.502 52.6C122.502 52.56 122.509 52.5133 122.522 52.46C122.536 52.3933 122.569 52.3333 122.622 52.28L124.862 48.76L127.302 49.08L125.082 52.7C125.042 52.78 124.976 52.8533 124.882 52.92C124.789 52.9733 124.689 53 124.582 53H122.922ZM126.882 47.56H128.882V44.5H127.002C126.389 44.5 125.936 44.6133 125.642 44.84C125.349 45.0533 125.202 45.4333 125.202 45.98C125.202 46.4467 125.336 46.8267 125.602 47.12C125.882 47.4133 126.309 47.56 126.882 47.56ZM139.257 53C139.124 53 139.01 52.9533 138.917 52.86C138.824 52.7667 138.777 52.6533 138.777 52.52V43.08C138.777 42.9467 138.824 42.8333 138.917 42.74C139.01 42.6467 139.124 42.6 139.257 42.6H143.697C145.11 42.6 146.157 42.86 146.837 43.38C147.517 43.9 147.857 44.6 147.857 45.48C147.857 46.04 147.75 46.4733 147.537 46.78C147.324 47.0867 147.03 47.3533 146.657 47.58C147.124 47.7933 147.484 48.12 147.737 48.56C148.004 48.9867 148.137 49.46 148.137 49.98C148.137 50.94 147.777 51.6867 147.057 52.22C146.35 52.74 145.304 53 143.917 53H139.257ZM141.337 51.2H143.737C144.27 51.2 144.697 51.1 145.017 50.9C145.337 50.7 145.497 50.3867 145.497 49.96C145.497 49.52 145.35 49.2 145.057 49C144.764 48.8 144.324 48.7 143.737 48.7H141.337V51.2ZM141.337 46.84H143.657C144.19 46.84 144.61 46.7333 144.917 46.52C145.224 46.2933 145.377 45.9667 145.377 45.54C145.377 45.1133 145.217 44.82 144.897 44.66C144.59 44.4867 144.177 44.4 143.657 44.4H141.337V46.84ZM153.457 53.2C152.764 53.2 152.137 53.0667 151.577 52.8C151.017 52.52 150.571 52.1533 150.237 51.7C149.917 51.2333 149.757 50.7133 149.757 50.14C149.757 49.2067 150.131 48.4667 150.877 47.92C151.637 47.36 152.637 46.9867 153.877 46.8L156.617 46.4V45.98C156.617 45.42 156.477 44.9867 156.197 44.68C155.917 44.3733 155.437 44.22 154.757 44.22C154.277 44.22 153.884 44.32 153.577 44.52C153.284 44.7067 153.064 44.96 152.917 45.28C152.811 45.4533 152.657 45.54 152.457 45.54H150.877C150.731 45.54 150.617 45.5 150.537 45.42C150.471 45.34 150.437 45.2333 150.437 45.1C150.451 44.8867 150.537 44.6267 150.697 44.32C150.857 44.0133 151.111 43.72 151.457 43.44C151.804 43.1467 152.251 42.9 152.797 42.7C153.344 42.5 154.004 42.4 154.777 42.4C155.617 42.4 156.324 42.5067 156.897 42.72C157.484 42.92 157.951 43.1933 158.297 43.54C158.644 43.8867 158.897 44.2933 159.057 44.76C159.217 45.2267 159.297 45.72 159.297 46.24V52.52C159.297 52.6533 159.251 52.7667 159.157 52.86C159.064 52.9533 158.951 53 158.817 53H157.197C157.051 53 156.931 52.9533 156.837 52.86C156.757 52.7667 156.717 52.6533 156.717 52.52V51.74C156.544 51.9933 156.311 52.2333 156.017 52.46C155.724 52.6733 155.364 52.8533 154.937 53C154.524 53.1333 154.031 53.2 153.457 53.2ZM154.137 51.3C154.604 51.3 155.024 51.2 155.397 51C155.784 50.8 156.084 50.4933 156.297 50.08C156.524 49.6533 156.637 49.12 156.637 48.48V48.06L154.637 48.38C153.851 48.5 153.264 48.6933 152.877 48.96C152.491 49.2267 152.297 49.5533 152.297 49.94C152.297 50.2333 152.384 50.4867 152.557 50.7C152.744 50.9 152.977 51.0533 153.257 51.16C153.537 51.2533 153.831 51.3 154.137 51.3ZM162.343 53C162.21 53 162.096 52.9533 162.003 52.86C161.91 52.7667 161.863 52.6533 161.863 52.52V43.08C161.863 42.9467 161.91 42.8333 162.003 42.74C162.096 42.6467 162.21 42.6 162.343 42.6H163.923C164.07 42.6 164.183 42.6467 164.263 42.74C164.356 42.8333 164.403 42.9467 164.403 43.08V50.88H167.403V43.08C167.403 42.9467 167.443 42.8333 167.523 42.74C167.616 42.6467 167.736 42.6 167.883 42.6H169.323C169.47 42.6 169.583 42.6467 169.663 42.74C169.756 42.8333 169.803 42.9467 169.803 43.08V50.88H172.803V43.08C172.803 42.9467 172.843 42.8333 172.923 42.74C173.016 42.6467 173.136 42.6 173.283 42.6H174.863C174.996 42.6 175.11 42.6467 175.203 42.74C175.296 42.8333 175.343 42.9467 175.343 43.08V52.52C175.343 52.6533 175.296 52.7667 175.203 52.86C175.11 52.9533 174.996 53 174.863 53H162.343ZM182.515 53.2C181.035 53.2 179.862 52.7733 178.995 51.92C178.128 51.0667 177.662 49.8533 177.595 48.28C177.582 48.1467 177.575 47.98 177.575 47.78C177.575 47.5667 177.582 47.4 177.595 47.28C177.648 46.28 177.875 45.4133 178.275 44.68C178.688 43.9467 179.255 43.3867 179.975 43C180.695 42.6 181.542 42.4 182.515 42.4C183.595 42.4 184.502 42.6267 185.235 43.08C185.968 43.52 186.522 44.14 186.895 44.94C187.268 45.7267 187.455 46.64 187.455 47.68V48.1C187.455 48.2333 187.408 48.3467 187.315 48.44C187.222 48.5333 187.102 48.58 186.955 48.58H180.315C180.315 48.58 180.315 48.6 180.315 48.64C180.315 48.68 180.315 48.7133 180.315 48.74C180.328 49.2067 180.415 49.64 180.575 50.04C180.748 50.4267 180.995 50.74 181.315 50.98C181.648 51.22 182.042 51.34 182.495 51.34C182.868 51.34 183.182 51.2867 183.435 51.18C183.688 51.06 183.895 50.9267 184.055 50.78C184.215 50.6333 184.328 50.5133 184.395 50.42C184.515 50.26 184.608 50.1667 184.675 50.14C184.755 50.1 184.868 50.08 185.015 50.08H186.735C186.868 50.08 186.975 50.12 187.055 50.2C187.148 50.28 187.188 50.38 187.175 50.5C187.162 50.7133 187.048 50.9733 186.835 51.28C186.635 51.5867 186.342 51.8867 185.955 52.18C185.568 52.4733 185.082 52.72 184.495 52.92C183.922 53.1067 183.262 53.2 182.515 53.2ZM180.315 46.9H184.735V46.84C184.735 46.32 184.648 45.8667 184.475 45.48C184.302 45.0933 184.048 44.7867 183.715 44.56C183.382 44.3333 182.982 44.22 182.515 44.22C182.048 44.22 181.648 44.3333 181.315 44.56C180.982 44.7867 180.728 45.0933 180.555 45.48C180.395 45.8667 180.315 46.32 180.315 46.84V46.9ZM190.058 53C189.924 53 189.811 52.9533 189.718 52.86C189.624 52.7667 189.578 52.6533 189.578 52.52V43.08C189.578 42.9467 189.624 42.8333 189.718 42.74C189.811 42.6467 189.924 42.6 190.058 42.6H196.398C196.531 42.6 196.644 42.6467 196.738 42.74C196.831 42.8333 196.878 42.9467 196.878 43.08V44.24C196.878 44.3733 196.831 44.4867 196.738 44.58C196.644 44.6733 196.531 44.72 196.398 44.72H192.198V52.52C192.198 52.6533 192.151 52.7667 192.058 52.86C191.978 52.9533 191.864 53 191.718 53H190.058ZM203.084 53.2C202.017 53.2 201.117 53.0133 200.384 52.64C199.664 52.2667 199.111 51.74 198.724 51.06C198.351 50.38 198.137 49.5867 198.084 48.68C198.071 48.44 198.064 48.1467 198.064 47.8C198.064 47.4533 198.071 47.16 198.084 46.92C198.137 46 198.357 45.2067 198.744 44.54C199.144 43.86 199.704 43.3333 200.424 42.96C201.157 42.5867 202.044 42.4 203.084 42.4C204.124 42.4 205.004 42.5867 205.724 42.96C206.457 43.3333 207.017 43.86 207.404 44.54C207.804 45.2067 208.031 46 208.084 46.92C208.097 47.16 208.104 47.4533 208.104 47.8C208.104 48.1467 208.097 48.44 208.084 48.68C208.031 49.5867 207.811 50.38 207.424 51.06C207.051 51.74 206.497 52.2667 205.764 52.64C205.044 53.0133 204.151 53.2 203.084 53.2ZM203.084 51.22C203.791 51.22 204.337 51 204.724 50.56C205.111 50.1067 205.324 49.4467 205.364 48.58C205.377 48.38 205.384 48.12 205.384 47.8C205.384 47.48 205.377 47.22 205.364 47.02C205.324 46.1667 205.111 45.5133 204.724 45.06C204.337 44.6067 203.791 44.38 203.084 44.38C202.377 44.38 201.831 44.6067 201.444 45.06C201.057 45.5133 200.844 46.1667 200.804 47.02C200.791 47.22 200.784 47.48 200.784 47.8C200.784 48.12 200.791 48.38 200.804 48.58C200.844 49.4467 201.057 50.1067 201.444 50.56C201.831 51 202.377 51.22 203.084 51.22ZM215.37 53C215.237 53 215.124 52.9533 215.03 52.86C214.937 52.7667 214.89 52.6533 214.89 52.52V43.08C214.89 42.9467 214.937 42.8333 215.03 42.74C215.124 42.6467 215.237 42.6 215.37 42.6H219.81C221.224 42.6 222.27 42.86 222.95 43.38C223.63 43.9 223.97 44.6 223.97 45.48C223.97 46.04 223.864 46.4733 223.65 46.78C223.437 47.0867 223.144 47.3533 222.77 47.58C223.237 47.7933 223.597 48.12 223.85 48.56C224.117 48.9867 224.25 49.46 224.25 49.98C224.25 50.94 223.89 51.6867 223.17 52.22C222.464 52.74 221.417 53 220.03 53H215.37ZM217.45 51.2H219.85C220.384 51.2 220.81 51.1 221.13 50.9C221.45 50.7 221.61 50.3867 221.61 49.96C221.61 49.52 221.464 49.2 221.17 49C220.877 48.8 220.437 48.7 219.85 48.7H217.45V51.2ZM217.45 46.84H219.77C220.304 46.84 220.724 46.7333 221.03 46.52C221.337 46.2933 221.49 45.9667 221.49 45.54C221.49 45.1133 221.33 44.82 221.01 44.66C220.704 44.4867 220.29 44.4 219.77 44.4H217.45V46.84ZM227.05 56.8C226.917 56.8 226.804 56.7533 226.71 56.66C226.617 56.5667 226.57 56.4533 226.57 56.32V43.08C226.57 42.9467 226.617 42.8333 226.71 42.74C226.804 42.6467 226.917 42.6 227.05 42.6H228.63C228.777 42.6 228.89 42.6467 228.97 42.74C229.064 42.8333 229.11 42.9467 229.11 43.08V43.88C229.43 43.4533 229.85 43.1 230.37 42.82C230.89 42.54 231.537 42.4 232.31 42.4C233.017 42.4 233.63 42.5133 234.15 42.74C234.67 42.9667 235.104 43.2933 235.45 43.72C235.797 44.1333 236.064 44.6267 236.25 45.2C236.437 45.7733 236.544 46.4067 236.57 47.1C236.584 47.3267 236.59 47.56 236.59 47.8C236.59 48.04 236.584 48.28 236.57 48.52C236.557 49.1867 236.457 49.8067 236.27 50.38C236.084 50.94 235.81 51.4333 235.45 51.86C235.104 52.2733 234.67 52.6 234.15 52.84C233.63 53.08 233.017 53.2 232.31 53.2C231.59 53.2 230.977 53.0733 230.47 52.82C229.964 52.5533 229.55 52.2067 229.23 51.78V56.32C229.23 56.4533 229.184 56.5667 229.09 56.66C229.01 56.7533 228.897 56.8 228.75 56.8H227.05ZM231.57 51.06C232.144 51.06 232.59 50.94 232.91 50.7C233.23 50.4467 233.457 50.12 233.59 49.72C233.737 49.32 233.824 48.88 233.85 48.4C233.877 48 233.877 47.6 233.85 47.2C233.824 46.72 233.737 46.28 233.59 45.88C233.457 45.48 233.23 45.16 232.91 44.92C232.59 44.6667 232.144 44.54 231.57 44.54C231.024 44.54 230.577 44.6667 230.23 44.92C229.897 45.1733 229.65 45.5 229.49 45.9C229.344 46.2867 229.257 46.6867 229.23 47.1C229.217 47.34 229.21 47.5933 229.21 47.86C229.21 48.1267 229.217 48.3867 229.23 48.64C229.244 49.04 229.337 49.4267 229.51 49.8C229.684 50.16 229.937 50.46 230.27 50.7C230.604 50.94 231.037 51.06 231.57 51.06ZM243.316 53.2C241.836 53.2 240.662 52.7733 239.796 51.92C238.929 51.0667 238.462 49.8533 238.396 48.28C238.382 48.1467 238.376 47.98 238.376 47.78C238.376 47.5667 238.382 47.4 238.396 47.28C238.449 46.28 238.676 45.4133 239.076 44.68C239.489 43.9467 240.056 43.3867 240.776 43C241.496 42.6 242.342 42.4 243.316 42.4C244.396 42.4 245.302 42.6267 246.036 43.08C246.769 43.52 247.322 44.14 247.696 44.94C248.069 45.7267 248.256 46.64 248.256 47.68V48.1C248.256 48.2333 248.209 48.3467 248.116 48.44C248.022 48.5333 247.902 48.58 247.756 48.58H241.116C241.116 48.58 241.116 48.6 241.116 48.64C241.116 48.68 241.116 48.7133 241.116 48.74C241.129 49.2067 241.216 49.64 241.376 50.04C241.549 50.4267 241.796 50.74 242.116 50.98C242.449 51.22 242.842 51.34 243.296 51.34C243.669 51.34 243.982 51.2867 244.236 51.18C244.489 51.06 244.696 50.9267 244.856 50.78C245.016 50.6333 245.129 50.5133 245.196 50.42C245.316 50.26 245.409 50.1667 245.476 50.14C245.556 50.1 245.669 50.08 245.816 50.08H247.536C247.669 50.08 247.776 50.12 247.856 50.2C247.949 50.28 247.989 50.38 247.976 50.5C247.962 50.7133 247.849 50.9733 247.636 51.28C247.436 51.5867 247.142 51.8867 246.756 52.18C246.369 52.4733 245.882 52.72 245.296 52.92C244.722 53.1067 244.062 53.2 243.316 53.2ZM241.116 46.9H245.536V46.84C245.536 46.32 245.449 45.8667 245.276 45.48C245.102 45.0933 244.849 44.7867 244.516 44.56C244.182 44.3333 243.782 44.22 243.316 44.22C242.849 44.22 242.449 44.3333 242.116 44.56C241.782 44.7867 241.529 45.0933 241.356 45.48C241.196 45.8667 241.116 46.32 241.116 46.84V46.9ZM250.819 53C250.685 53 250.579 52.96 250.499 52.88C250.419 52.8 250.379 52.7 250.379 52.58V42.98C250.379 42.8733 250.419 42.7867 250.499 42.72C250.592 42.64 250.685 42.6 250.779 42.6H252.459C252.685 42.6 252.859 42.7133 252.979 42.94L256.059 48.54L259.139 42.94C259.259 42.7133 259.432 42.6 259.659 42.6H261.319C261.439 42.6 261.539 42.64 261.619 42.72C261.699 42.7867 261.739 42.8733 261.739 42.98V52.58C261.739 52.7 261.699 52.8 261.619 52.88C261.539 52.96 261.432 53 261.299 53H259.579C259.445 53 259.339 52.96 259.259 52.88C259.192 52.8 259.159 52.7 259.159 52.58V45.32L259.979 45.46L257.019 50.92C256.952 51.04 256.872 51.1533 256.779 51.26C256.685 51.3533 256.552 51.4 256.379 51.4H255.719C255.559 51.4 255.432 51.3533 255.339 51.26C255.245 51.1667 255.165 51.0533 255.099 50.92L252.199 45.68L252.959 45.56V52.58C252.959 52.7 252.919 52.8 252.839 52.88C252.759 52.96 252.659 53 252.539 53H250.819ZM268.921 53.2C267.441 53.2 266.268 52.7733 265.401 51.92C264.534 51.0667 264.068 49.8533 264.001 48.28C263.988 48.1467 263.981 47.98 263.981 47.78C263.981 47.5667 263.988 47.4 264.001 47.28C264.054 46.28 264.281 45.4133 264.681 44.68C265.094 43.9467 265.661 43.3867 266.381 43C267.101 42.6 267.948 42.4 268.921 42.4C270.001 42.4 270.908 42.6267 271.641 43.08C272.374 43.52 272.928 44.14 273.301 44.94C273.674 45.7267 273.861 46.64 273.861 47.68V48.1C273.861 48.2333 273.814 48.3467 273.721 48.44C273.628 48.5333 273.508 48.58 273.361 48.58H266.721C266.721 48.58 266.721 48.6 266.721 48.64C266.721 48.68 266.721 48.7133 266.721 48.74C266.734 49.2067 266.821 49.64 266.981 50.04C267.154 50.4267 267.401 50.74 267.721 50.98C268.054 51.22 268.448 51.34 268.901 51.34C269.274 51.34 269.588 51.2867 269.841 51.18C270.094 51.06 270.301 50.9267 270.461 50.78C270.621 50.6333 270.734 50.5133 270.801 50.42C270.921 50.26 271.014 50.1667 271.081 50.14C271.161 50.1 271.274 50.08 271.421 50.08H273.141C273.274 50.08 273.381 50.12 273.461 50.2C273.554 50.28 273.594 50.38 273.581 50.5C273.568 50.7133 273.454 50.9733 273.241 51.28C273.041 51.5867 272.748 51.8867 272.361 52.18C271.974 52.4733 271.488 52.72 270.901 52.92C270.328 53.1067 269.668 53.2 268.921 53.2ZM266.721 46.9H271.141V46.84C271.141 46.32 271.054 45.8667 270.881 45.48C270.708 45.0933 270.454 44.7867 270.121 44.56C269.788 44.3333 269.388 44.22 268.921 44.22C268.454 44.22 268.054 44.3333 267.721 44.56C267.388 44.7867 267.134 45.0933 266.961 45.48C266.801 45.8667 266.721 46.32 266.721 46.84V46.9ZM276.464 53C276.331 53 276.217 52.9533 276.124 52.86C276.031 52.7667 275.984 52.6533 275.984 52.52V43.08C275.984 42.9467 276.031 42.8333 276.124 42.74C276.217 42.6467 276.331 42.6 276.464 42.6H278.124C278.271 42.6 278.384 42.6467 278.464 42.74C278.557 42.8333 278.604 42.9467 278.604 43.08V46.66H283.124V43.08C283.124 42.9467 283.171 42.8333 283.264 42.74C283.357 42.6467 283.471 42.6 283.604 42.6H285.264C285.397 42.6 285.511 42.6467 285.604 42.74C285.697 42.8333 285.744 42.9467 285.744 43.08V52.52C285.744 52.6533 285.697 52.7667 285.604 52.86C285.511 52.9533 285.397 53 285.264 53H283.604C283.471 53 283.357 52.9533 283.264 52.86C283.171 52.7667 283.124 52.6533 283.124 52.52V48.76H278.604V52.52C278.604 52.6533 278.557 52.7667 278.464 52.86C278.384 52.9533 278.271 53 278.124 53H276.464ZM288.905 53C288.785 53 288.678 52.9533 288.585 52.86C288.492 52.7667 288.445 52.66 288.445 52.54V43.08C288.445 42.9467 288.492 42.8333 288.585 42.74C288.678 42.6467 288.792 42.6 288.925 42.6H290.585C290.732 42.6 290.845 42.6467 290.925 42.74C291.018 42.8333 291.065 42.9467 291.065 43.08V50.98L290.365 50.48L295.865 42.92C295.932 42.8267 296.005 42.7533 296.085 42.7C296.165 42.6333 296.272 42.6 296.405 42.6H297.925C298.045 42.6 298.152 42.6467 298.245 42.74C298.338 42.82 298.385 42.92 298.385 43.04V52.52C298.385 52.6533 298.338 52.7667 298.245 52.86C298.152 52.9533 298.038 53 297.905 53H296.245C296.098 53 295.978 52.9533 295.885 52.86C295.805 52.7667 295.765 52.6533 295.765 52.52V44.98L296.505 45.08L290.965 52.68C290.912 52.76 290.838 52.8333 290.745 52.9C290.665 52.9667 290.558 53 290.425 53H288.905Z" fill="#073BA1"/>
<path d="M39.424 86.16C38.4427 86.16 37.6267 85.9787 36.976 85.616C36.336 85.2533 35.8507 84.7467 35.52 84.096C35.1893 83.4453 35.008 82.688 34.976 81.824C34.9653 81.3867 34.96 80.9173 34.96 80.416C34.96 79.9147 34.9653 79.4347 34.976 78.976C35.008 78.112 35.1893 77.3547 35.52 76.704C35.8507 76.0533 36.336 75.5467 36.976 75.184C37.6267 74.8213 38.4427 74.64 39.424 74.64C40.16 74.64 40.8053 74.7413 41.36 74.944C41.9147 75.1467 42.3733 75.4187 42.736 75.76C43.1093 76.1013 43.392 76.4853 43.584 76.912C43.776 77.328 43.8827 77.76 43.904 78.208C43.9147 78.304 43.8827 78.384 43.808 78.448C43.744 78.512 43.664 78.544 43.568 78.544H42.688C42.592 78.544 42.5067 78.5173 42.432 78.464C42.368 78.4107 42.32 78.3147 42.288 78.176C42.1067 77.344 41.7653 76.7733 41.264 76.464C40.7733 76.1547 40.1547 76 39.408 76C38.5547 76 37.8773 76.2453 37.376 76.736C36.8747 77.216 36.6027 77.9893 36.56 79.056C36.528 79.9307 36.528 80.8267 36.56 81.744C36.6027 82.8107 36.8747 83.5893 37.376 84.08C37.8773 84.56 38.5547 84.8 39.408 84.8C40.1547 84.8 40.7733 84.6453 41.264 84.336C41.7653 84.0267 42.1067 83.456 42.288 82.624C42.32 82.4853 42.368 82.3893 42.432 82.336C42.5067 82.2827 42.592 82.256 42.688 82.256H43.568C43.664 82.256 43.744 82.288 43.808 82.352C43.8827 82.416 43.9147 82.496 43.904 82.592C43.8827 83.04 43.776 83.4773 43.584 83.904C43.392 84.32 43.1093 84.6987 42.736 85.04C42.3733 85.3813 41.9147 85.6533 41.36 85.856C40.8053 86.0587 40.16 86.16 39.424 86.16ZM45.3603 87.76C45.2536 87.76 45.1629 87.7227 45.0883 87.648C45.0243 87.584 44.9923 87.4987 44.9923 87.392V85.088C44.9923 84.9813 45.0243 84.896 45.0883 84.832C45.1629 84.7573 45.2536 84.72 45.3603 84.72H45.4403C45.7283 84.7093 45.9736 84.5493 46.1763 84.24C46.3789 83.92 46.5336 83.424 46.6403 82.752C46.7469 82.0693 46.8003 81.184 46.8003 80.096V78.048C46.8003 77.9413 46.8323 77.856 46.8963 77.792C46.9709 77.7173 47.0616 77.68 47.1683 77.68H52.2723C52.3789 77.68 52.4643 77.7173 52.5283 77.792C52.6029 77.856 52.6403 77.9413 52.6403 78.048V84.688H53.3923C53.5096 84.688 53.6003 84.7253 53.6643 84.8C53.7283 84.864 53.7603 84.9493 53.7603 85.056V87.392C53.7603 87.4987 53.7283 87.584 53.6643 87.648C53.6003 87.7227 53.5096 87.76 53.3923 87.76H52.6403C52.5336 87.76 52.4429 87.7227 52.3683 87.648C52.3043 87.584 52.2723 87.4987 52.2723 87.392V86H46.4803V87.392C46.4803 87.4987 46.4429 87.584 46.3683 87.648C46.3043 87.7227 46.2189 87.76 46.1123 87.76H45.3603ZM47.3443 84.72L51.1523 84.688V78.96H48.2563V80.272C48.2563 81.4027 48.1763 82.3307 48.0163 83.056C47.8563 83.7707 47.6323 84.3253 47.3443 84.72ZM58.746 86.16C57.6473 86.16 56.7727 85.824 56.122 85.152C55.4713 84.4693 55.114 83.5413 55.05 82.368C55.0393 82.2293 55.034 82.0533 55.034 81.84C55.034 81.616 55.0393 81.4347 55.05 81.296C55.0927 80.5387 55.2687 79.8773 55.578 79.312C55.8873 78.736 56.3087 78.2933 56.842 77.984C57.386 77.6747 58.0207 77.52 58.746 77.52C59.5567 77.52 60.234 77.6907 60.778 78.032C61.3327 78.3733 61.754 78.8587 62.042 79.488C62.33 80.1173 62.474 80.8533 62.474 81.696V81.968C62.474 82.0853 62.4367 82.176 62.362 82.24C62.298 82.304 62.2127 82.336 62.106 82.336H56.57C56.57 82.3467 56.57 82.368 56.57 82.4C56.57 82.432 56.57 82.4587 56.57 82.48C56.5913 82.9173 56.6873 83.328 56.858 83.712C57.0287 84.0853 57.274 84.3893 57.594 84.624C57.914 84.8587 58.298 84.976 58.746 84.976C59.13 84.976 59.45 84.9173 59.706 84.8C59.962 84.6827 60.17 84.5547 60.33 84.416C60.49 84.2667 60.5967 84.1547 60.65 84.08C60.746 83.9413 60.8207 83.8613 60.874 83.84C60.9273 83.808 61.0127 83.792 61.13 83.792H61.898C62.0047 83.792 62.09 83.824 62.154 83.888C62.2287 83.9413 62.2607 84.0213 62.25 84.128C62.2393 84.288 62.154 84.4853 61.994 84.72C61.834 84.944 61.6047 85.168 61.306 85.392C61.0073 85.616 60.6447 85.8027 60.218 85.952C59.7913 86.0907 59.3007 86.16 58.746 86.16ZM56.57 81.232H60.954V81.184C60.954 80.704 60.8633 80.2773 60.682 79.904C60.5113 79.5307 60.2607 79.2373 59.93 79.024C59.5993 78.8 59.2047 78.688 58.746 78.688C58.2873 78.688 57.8927 78.8 57.562 79.024C57.242 79.2373 56.9967 79.5307 56.826 79.904C56.6553 80.2773 56.57 80.704 56.57 81.184V81.232ZM63.9871 86C63.8805 86 63.7898 85.9627 63.7151 85.888C63.6405 85.8133 63.6031 85.7227 63.6031 85.616V85.024C63.6031 84.8 63.7151 84.6827 63.9391 84.672C64.2698 84.6613 64.5471 84.5067 64.7711 84.208C64.9951 83.8987 65.1658 83.4133 65.2831 82.752C65.4005 82.08 65.4591 81.1947 65.4591 80.096V78.048C65.4591 77.9413 65.4911 77.856 65.5551 77.792C65.6298 77.7173 65.7205 77.68 65.8271 77.68H70.9151C71.0218 77.68 71.1071 77.7173 71.1711 77.792C71.2458 77.856 71.2831 77.9413 71.2831 78.048V85.632C71.2831 85.7387 71.2458 85.8293 71.1711 85.904C71.1071 85.968 71.0218 86 70.9151 86H70.1471C70.0405 86 69.9551 85.968 69.8911 85.904C69.8271 85.8293 69.7951 85.7387 69.7951 85.632V78.96H66.9151V80.272C66.9151 81.296 66.8565 82.176 66.7391 82.912C66.6218 83.6373 66.4405 84.2293 66.1951 84.688C65.9605 85.136 65.6565 85.4667 65.2831 85.68C64.9205 85.8933 64.4885 86 63.9871 86ZM75.9884 86.16C75.455 86.16 74.9697 86.0533 74.5324 85.84C74.095 85.6267 73.743 85.3387 73.4764 84.976C73.2097 84.6133 73.0764 84.2027 73.0764 83.744C73.0764 83.008 73.375 82.4213 73.9724 81.984C74.5697 81.5467 75.3484 81.2587 76.3084 81.12L78.6924 80.784V80.32C78.6924 79.808 78.543 79.408 78.2444 79.12C77.9564 78.832 77.4817 78.688 76.8204 78.688C76.3404 78.688 75.951 78.784 75.6524 78.976C75.3644 79.168 75.1617 79.4133 75.0444 79.712C74.9804 79.872 74.8684 79.952 74.7084 79.952H73.9884C73.871 79.952 73.7804 79.92 73.7164 79.856C73.663 79.7813 73.6364 79.696 73.6364 79.6C73.6364 79.44 73.695 79.2427 73.8124 79.008C73.9404 78.7733 74.1324 78.544 74.3884 78.32C74.6444 78.096 74.9697 77.9093 75.3644 77.76C75.7697 77.6 76.2604 77.52 76.8364 77.52C77.4764 77.52 78.015 77.6053 78.4524 77.776C78.8897 77.936 79.231 78.1547 79.4764 78.432C79.7324 78.7093 79.9137 79.024 80.0204 79.376C80.1377 79.728 80.1964 80.0853 80.1964 80.448V85.632C80.1964 85.7387 80.159 85.8293 80.0844 85.904C80.0204 85.968 79.935 86 79.8284 86H79.0924C78.975 86 78.8844 85.968 78.8204 85.904C78.7564 85.8293 78.7244 85.7387 78.7244 85.632V84.944C78.5857 85.136 78.399 85.328 78.1644 85.52C77.9297 85.7013 77.6364 85.856 77.2844 85.984C76.9324 86.1013 76.5004 86.16 75.9884 86.16ZM76.3244 84.96C76.7617 84.96 77.1617 84.8693 77.5244 84.688C77.887 84.496 78.1697 84.2027 78.3724 83.808C78.5857 83.4133 78.6924 82.9173 78.6924 82.32V81.872L76.8364 82.144C76.079 82.2507 75.5084 82.432 75.1244 82.688C74.7404 82.9333 74.5484 83.248 74.5484 83.632C74.5484 83.9307 74.6337 84.1813 74.8044 84.384C74.9857 84.576 75.2097 84.72 75.4764 84.816C75.7537 84.912 76.0364 84.96 76.3244 84.96ZM85.8085 86.16C84.7098 86.16 83.8352 85.824 83.1845 85.152C82.5338 84.4693 82.1765 83.5413 82.1125 82.368C82.1018 82.2293 82.0965 82.0533 82.0965 81.84C82.0965 81.616 82.1018 81.4347 82.1125 81.296C82.1552 80.5387 82.3312 79.8773 82.6405 79.312C82.9498 78.736 83.3712 78.2933 83.9045 77.984C84.4485 77.6747 85.0832 77.52 85.8085 77.52C86.6192 77.52 87.2965 77.6907 87.8405 78.032C88.3952 78.3733 88.8165 78.8587 89.1045 79.488C89.3925 80.1173 89.5365 80.8533 89.5365 81.696V81.968C89.5365 82.0853 89.4992 82.176 89.4245 82.24C89.3605 82.304 89.2752 82.336 89.1685 82.336H83.6325C83.6325 82.3467 83.6325 82.368 83.6325 82.4C83.6325 82.432 83.6325 82.4587 83.6325 82.48C83.6538 82.9173 83.7498 83.328 83.9205 83.712C84.0912 84.0853 84.3365 84.3893 84.6565 84.624C84.9765 84.8587 85.3605 84.976 85.8085 84.976C86.1925 84.976 86.5125 84.9173 86.7685 84.8C87.0245 84.6827 87.2325 84.5547 87.3925 84.416C87.5525 84.2667 87.6592 84.1547 87.7125 84.08C87.8085 83.9413 87.8832 83.8613 87.9365 83.84C87.9898 83.808 88.0752 83.792 88.1925 83.792H88.9605C89.0672 83.792 89.1525 83.824 89.2165 83.888C89.2912 83.9413 89.3232 84.0213 89.3125 84.128C89.3018 84.288 89.2165 84.4853 89.0565 84.72C88.8965 84.944 88.6672 85.168 88.3685 85.392C88.0698 85.616 87.7072 85.8027 87.2805 85.952C86.8538 86.0907 86.3632 86.16 85.8085 86.16ZM83.6325 81.232H88.0165V81.184C88.0165 80.704 87.9258 80.2773 87.7445 79.904C87.5738 79.5307 87.3232 79.2373 86.9925 79.024C86.6618 78.8 86.2672 78.688 85.8085 78.688C85.3498 78.688 84.9552 78.8 84.6245 79.024C84.3045 79.2373 84.0592 79.5307 83.8885 79.904C83.7178 80.2773 83.6325 80.704 83.6325 81.184V81.232ZM91.8016 86C91.695 86 91.6096 85.968 91.5456 85.904C91.4816 85.84 91.4496 85.7547 91.4496 85.648V77.984C91.4496 77.8987 91.4816 77.8293 91.5456 77.776C91.6203 77.712 91.695 77.68 91.7696 77.68H92.5856C92.7563 77.68 92.8896 77.7653 92.9856 77.936L95.7056 83.024L98.4416 77.936C98.5376 77.7653 98.671 77.68 98.8416 77.68H99.6416C99.727 77.68 99.8016 77.712 99.8656 77.776C99.9296 77.8293 99.9616 77.8987 99.9616 77.984V85.648C99.9616 85.7547 99.9296 85.84 99.8656 85.904C99.8016 85.968 99.7216 86 99.6256 86H98.8416C98.735 86 98.6496 85.968 98.5856 85.904C98.5216 85.84 98.4896 85.7547 98.4896 85.648V79.264L99.0496 79.328L96.4416 84.256C96.3883 84.3627 96.3243 84.4587 96.2496 84.544C96.175 84.6293 96.063 84.672 95.9136 84.672H95.4976C95.359 84.672 95.2523 84.6293 95.1776 84.544C95.103 84.4587 95.0336 84.3627 94.9696 84.256L92.4416 79.568L92.9376 79.52V85.648C92.9376 85.7547 92.9056 85.84 92.8416 85.904C92.7776 85.968 92.6923 86 92.5856 86H91.8016ZM106.646 86C106.539 86 106.448 85.968 106.374 85.904C106.31 85.8293 106.278 85.7387 106.278 85.632V78.048C106.278 77.9413 106.31 77.856 106.374 77.792C106.448 77.7173 106.539 77.68 106.646 77.68H111.43C111.536 77.68 111.622 77.7173 111.686 77.792C111.75 77.856 111.782 77.9413 111.782 78.048V78.592C111.782 78.6987 111.75 78.7893 111.686 78.864C111.622 78.928 111.536 78.96 111.43 78.96H107.766V85.632C107.766 85.7387 107.734 85.8293 107.67 85.904C107.606 85.968 107.52 86 107.414 86H106.646ZM116.561 86.16C115.75 86.16 115.073 86.0053 114.529 85.696C113.985 85.3867 113.569 84.96 113.281 84.416C112.993 83.8613 112.833 83.232 112.801 82.528C112.79 82.3467 112.785 82.1173 112.785 81.84C112.785 81.552 112.79 81.3227 112.801 81.152C112.833 80.4373 112.993 79.808 113.281 79.264C113.579 78.72 114.001 78.2933 114.545 77.984C115.089 77.6747 115.761 77.52 116.561 77.52C117.361 77.52 118.033 77.6747 118.577 77.984C119.121 78.2933 119.537 78.72 119.825 79.264C120.123 79.808 120.289 80.4373 120.321 81.152C120.331 81.3227 120.337 81.552 120.337 81.84C120.337 82.1173 120.331 82.3467 120.321 82.528C120.289 83.232 120.129 83.8613 119.841 84.416C119.553 84.96 119.137 85.3867 118.593 85.696C118.049 86.0053 117.371 86.16 116.561 86.16ZM116.561 84.928C117.222 84.928 117.75 84.72 118.145 84.304C118.539 83.8773 118.753 83.2587 118.785 82.448C118.795 82.288 118.801 82.0853 118.801 81.84C118.801 81.5947 118.795 81.392 118.785 81.232C118.753 80.4213 118.539 79.808 118.145 79.392C117.75 78.9653 117.222 78.752 116.561 78.752C115.899 78.752 115.366 78.9653 114.961 79.392C114.566 79.808 114.358 80.4213 114.337 81.232C114.326 81.392 114.321 81.5947 114.321 81.84C114.321 82.0853 114.326 82.288 114.337 82.448C114.358 83.2587 114.566 83.8773 114.961 84.304C115.366 84.72 115.899 84.928 116.561 84.928ZM124.884 86C124.778 86 124.687 85.968 124.612 85.904C124.548 85.8293 124.516 85.7387 124.516 85.632V78.96H121.732C121.626 78.96 121.535 78.928 121.46 78.864C121.396 78.7893 121.364 78.6987 121.364 78.592V78.048C121.364 77.9413 121.396 77.856 121.46 77.792C121.535 77.7173 121.626 77.68 121.732 77.68H128.772C128.879 77.68 128.964 77.7173 129.028 77.792C129.103 77.856 129.14 77.9413 129.14 78.048V78.592C129.14 78.6987 129.103 78.7893 129.028 78.864C128.964 78.928 128.879 78.96 128.772 78.96H125.988V85.632C125.988 85.7387 125.956 85.8293 125.892 85.904C125.828 85.968 125.738 86 125.62 86H124.884ZM133.936 86.16C133.125 86.16 132.448 86.0053 131.904 85.696C131.36 85.3867 130.944 84.96 130.656 84.416C130.368 83.8613 130.208 83.232 130.176 82.528C130.165 82.3467 130.16 82.1173 130.16 81.84C130.16 81.552 130.165 81.3227 130.176 81.152C130.208 80.4373 130.368 79.808 130.656 79.264C130.954 78.72 131.376 78.2933 131.92 77.984C132.464 77.6747 133.136 77.52 133.936 77.52C134.736 77.52 135.408 77.6747 135.952 77.984C136.496 78.2933 136.912 78.72 137.2 79.264C137.498 79.808 137.664 80.4373 137.696 81.152C137.706 81.3227 137.712 81.552 137.712 81.84C137.712 82.1173 137.706 82.3467 137.696 82.528C137.664 83.232 137.504 83.8613 137.216 84.416C136.928 84.96 136.512 85.3867 135.968 85.696C135.424 86.0053 134.746 86.16 133.936 86.16ZM133.936 84.928C134.597 84.928 135.125 84.72 135.52 84.304C135.914 83.8773 136.128 83.2587 136.16 82.448C136.17 82.288 136.176 82.0853 136.176 81.84C136.176 81.5947 136.17 81.392 136.16 81.232C136.128 80.4213 135.914 79.808 135.52 79.392C135.125 78.9653 134.597 78.752 133.936 78.752C133.274 78.752 132.741 78.9653 132.336 79.392C131.941 79.808 131.733 80.4213 131.712 81.232C131.701 81.392 131.696 81.5947 131.696 81.84C131.696 82.0853 131.701 82.288 131.712 82.448C131.733 83.2587 131.941 83.8773 132.336 84.304C132.741 84.72 133.274 84.928 133.936 84.928ZM140.083 86C139.977 86 139.886 85.968 139.811 85.904C139.747 85.8293 139.715 85.7387 139.715 85.632V78.048C139.715 77.9413 139.747 77.856 139.811 77.792C139.886 77.7173 139.977 77.68 140.083 77.68H143.411C144.414 77.68 145.166 77.8827 145.667 78.288C146.179 78.6933 146.435 79.2373 146.435 79.92C146.435 80.4 146.345 80.7627 146.163 81.008C145.982 81.2533 145.726 81.4613 145.395 81.632C145.801 81.8027 146.105 82.08 146.307 82.464C146.521 82.8373 146.627 83.2267 146.627 83.632C146.627 84.4 146.355 84.9867 145.811 85.392C145.267 85.7973 144.51 86 143.539 86H140.083ZM141.187 84.832H143.411C143.923 84.832 144.334 84.736 144.643 84.544C144.963 84.3413 145.123 84.0373 145.123 83.632C145.123 83.2053 144.979 82.896 144.691 82.704C144.403 82.5013 143.977 82.4 143.411 82.4H141.187V84.832ZM141.187 81.216H143.315C143.827 81.216 144.233 81.104 144.531 80.88C144.841 80.656 144.995 80.3413 144.995 79.936C144.995 79.52 144.841 79.2373 144.531 79.088C144.233 78.928 143.827 78.848 143.315 78.848H141.187V81.216ZM149.068 89.04C148.951 89.04 148.86 89.0027 148.796 88.928C148.732 88.864 148.7 88.7787 148.7 88.672V88.128C148.7 88.0213 148.732 87.9307 148.796 87.856C148.86 87.792 148.951 87.76 149.068 87.76H149.484C149.729 87.76 149.927 87.712 150.076 87.616C150.225 87.52 150.359 87.3547 150.476 87.12C150.604 86.896 150.753 86.5867 150.924 86.192L154.396 77.952C154.428 77.8667 154.471 77.8027 154.524 77.76C154.588 77.7067 154.679 77.68 154.796 77.68H155.5C155.596 77.68 155.676 77.712 155.74 77.776C155.804 77.84 155.836 77.9147 155.836 78C155.836 78.0427 155.831 78.0853 155.82 78.128C155.809 78.16 155.788 78.2133 155.756 78.288L152.716 85.488C152.556 85.872 152.38 86.272 152.188 86.688C152.007 87.104 151.799 87.488 151.564 87.84C151.34 88.2027 151.073 88.4907 150.764 88.704C150.455 88.928 150.092 89.04 149.676 89.04H149.068ZM151.292 85.76L148.06 78.288C148.007 78.16 147.98 78.0693 147.98 78.016C147.991 77.92 148.028 77.84 148.092 77.776C148.156 77.712 148.231 77.68 148.316 77.68H149.068C149.185 77.68 149.271 77.7067 149.324 77.76C149.388 77.8133 149.436 77.8773 149.468 77.952L152.124 84.304L151.292 85.76ZM161.258 82.4H158.938V85.632C158.938 85.7387 158.906 85.8293 158.842 85.904C158.778 85.968 158.692 86 158.586 86H157.818C157.711 86 157.62 85.968 157.546 85.904C157.482 85.8293 157.45 85.7387 157.45 85.632V78.048C157.45 77.9413 157.482 77.856 157.546 77.792C157.62 77.7173 157.711 77.68 157.818 77.68H158.586C158.692 77.68 158.778 77.7173 158.842 77.792C158.906 77.856 158.938 77.9413 158.938 78.048V81.12H161.258V82.4ZM164.41 86.16C163.599 86.16 162.922 86.0053 162.378 85.696C161.834 85.3867 161.418 84.96 161.13 84.416C160.842 83.8613 160.682 83.232 160.65 82.528C160.639 82.3467 160.634 82.1173 160.634 81.84C160.634 81.552 160.639 81.3227 160.65 81.152C160.682 80.4373 160.842 79.808 161.13 79.264C161.418 78.72 161.834 78.2933 162.378 77.984C162.932 77.6747 163.61 77.52 164.41 77.52C165.21 77.52 165.882 77.6747 166.426 77.984C166.97 78.2933 167.386 78.72 167.674 79.264C167.972 79.808 168.132 80.4373 168.154 81.152C168.175 81.3227 168.186 81.552 168.186 81.84C168.186 82.1173 168.175 82.3467 168.154 82.528C168.132 83.232 167.978 83.8613 167.69 84.416C167.402 84.96 166.98 85.3867 166.426 85.696C165.882 86.0053 165.21 86.16 164.41 86.16ZM164.41 84.928C165.071 84.928 165.599 84.72 165.994 84.304C166.388 83.8773 166.602 83.2587 166.634 82.448C166.644 82.288 166.65 82.0853 166.65 81.84C166.65 81.5947 166.644 81.392 166.634 81.232C166.602 80.4213 166.388 79.808 165.994 79.392C165.599 78.9653 165.071 78.752 164.41 78.752C163.748 78.752 163.215 78.9653 162.81 79.392C162.415 79.808 162.202 80.4213 162.17 81.232C162.159 81.392 162.154 81.5947 162.154 81.84C162.154 82.0853 162.159 82.288 162.17 82.448C162.202 83.2587 162.415 83.8773 162.81 84.304C163.215 84.72 163.748 84.928 164.41 84.928ZM177.514 86.16C176.703 86.16 176.026 86.0053 175.482 85.696C174.938 85.3867 174.522 84.96 174.234 84.416C173.946 83.8613 173.786 83.232 173.754 82.528C173.743 82.3467 173.738 82.1173 173.738 81.84C173.738 81.552 173.743 81.3227 173.754 81.152C173.786 80.4373 173.946 79.808 174.234 79.264C174.533 78.72 174.954 78.2933 175.498 77.984C176.042 77.6747 176.714 77.52 177.514 77.52C178.314 77.52 178.986 77.6747 179.53 77.984C180.074 78.2933 180.49 78.72 180.778 79.264C181.077 79.808 181.242 80.4373 181.274 81.152C181.285 81.3227 181.29 81.552 181.29 81.84C181.29 82.1173 181.285 82.3467 181.274 82.528C181.242 83.232 181.082 83.8613 180.794 84.416C180.506 84.96 180.09 85.3867 179.546 85.696C179.002 86.0053 178.325 86.16 177.514 86.16ZM177.514 84.928C178.175 84.928 178.703 84.72 179.098 84.304C179.493 83.8773 179.706 83.2587 179.738 82.448C179.749 82.288 179.754 82.0853 179.754 81.84C179.754 81.5947 179.749 81.392 179.738 81.232C179.706 80.4213 179.493 79.808 179.098 79.392C178.703 78.9653 178.175 78.752 177.514 78.752C176.853 78.752 176.319 78.9653 175.914 79.392C175.519 79.808 175.311 80.4213 175.29 81.232C175.279 81.392 175.274 81.5947 175.274 81.84C175.274 82.0853 175.279 82.288 175.29 82.448C175.311 83.2587 175.519 83.8773 175.914 84.304C176.319 84.72 176.853 84.928 177.514 84.928ZM190.381 88.016C190.264 88.016 190.173 87.984 190.109 87.92C190.045 87.856 190.013 87.7653 190.013 87.648V86H183.661C183.555 86 183.464 85.968 183.389 85.904C183.325 85.8293 183.293 85.7387 183.293 85.632V78.048C183.293 77.9413 183.325 77.856 183.389 77.792C183.464 77.7173 183.555 77.68 183.661 77.68H184.429C184.536 77.68 184.621 77.7173 184.685 77.792C184.749 77.856 184.781 77.9413 184.781 78.048V84.72H188.893V78.048C188.893 77.9413 188.925 77.856 188.989 77.792C189.053 77.7173 189.139 77.68 189.245 77.68H190.013C190.12 77.68 190.205 77.7173 190.269 77.792C190.344 77.856 190.381 77.9413 190.381 78.048L190.365 84.72H191.133C191.24 84.72 191.325 84.7573 191.389 84.832C191.464 84.896 191.501 84.9813 191.501 85.088V87.648C191.501 87.7653 191.464 87.856 191.389 87.92C191.325 87.984 191.24 88.016 191.133 88.016H190.381ZM196.48 86.16C195.382 86.16 194.507 85.824 193.856 85.152C193.206 84.4693 192.848 83.5413 192.784 82.368C192.774 82.2293 192.768 82.0533 192.768 81.84C192.768 81.616 192.774 81.4347 192.784 81.296C192.827 80.5387 193.003 79.8773 193.312 79.312C193.622 78.736 194.043 78.2933 194.576 77.984C195.12 77.6747 195.755 77.52 196.48 77.52C197.291 77.52 197.968 77.6907 198.512 78.032C199.067 78.3733 199.488 78.8587 199.776 79.488C200.064 80.1173 200.208 80.8533 200.208 81.696V81.968C200.208 82.0853 200.171 82.176 200.096 82.24C200.032 82.304 199.947 82.336 199.84 82.336H194.304C194.304 82.3467 194.304 82.368 194.304 82.4C194.304 82.432 194.304 82.4587 194.304 82.48C194.326 82.9173 194.422 83.328 194.592 83.712C194.763 84.0853 195.008 84.3893 195.328 84.624C195.648 84.8587 196.032 84.976 196.48 84.976C196.864 84.976 197.184 84.9173 197.44 84.8C197.696 84.6827 197.904 84.5547 198.064 84.416C198.224 84.2667 198.331 84.1547 198.384 84.08C198.48 83.9413 198.555 83.8613 198.608 83.84C198.662 83.808 198.747 83.792 198.864 83.792H199.632C199.739 83.792 199.824 83.824 199.888 83.888C199.963 83.9413 199.995 84.0213 199.984 84.128C199.974 84.288 199.888 84.4853 199.728 84.72C199.568 84.944 199.339 85.168 199.04 85.392C198.742 85.616 198.379 85.8027 197.952 85.952C197.526 86.0907 197.035 86.16 196.48 86.16ZM194.304 81.232H198.688V81.184C198.688 80.704 198.598 80.2773 198.416 79.904C198.246 79.5307 197.995 79.2373 197.664 79.024C197.334 78.8 196.939 78.688 196.48 78.688C196.022 78.688 195.627 78.8 195.296 79.024C194.976 79.2373 194.731 79.5307 194.56 79.904C194.39 80.2773 194.304 80.704 194.304 81.184V81.232ZM202.49 86C202.383 86 202.292 85.968 202.218 85.904C202.154 85.8293 202.122 85.7387 202.122 85.632V78.048C202.122 77.9413 202.154 77.856 202.218 77.792C202.292 77.7173 202.383 77.68 202.49 77.68H203.258C203.364 77.68 203.45 77.7173 203.514 77.792C203.578 77.856 203.61 77.9413 203.61 78.048V81.12H207.978V78.048C207.978 77.9413 208.01 77.856 208.074 77.792C208.148 77.7173 208.239 77.68 208.346 77.68H209.098C209.204 77.68 209.29 77.7173 209.354 77.792C209.428 77.856 209.466 77.9413 209.466 78.048V85.632C209.466 85.7387 209.428 85.8293 209.354 85.904C209.29 85.968 209.204 86 209.098 86H208.346C208.239 86 208.148 85.968 208.074 85.904C208.01 85.8293 207.978 85.7387 207.978 85.632V82.4H203.61V85.632C203.61 85.7387 203.578 85.8293 203.514 85.904C203.45 85.968 203.364 86 203.258 86H202.49ZM212.24 86C212.133 86 212.042 85.968 211.968 85.904C211.904 85.8293 211.872 85.7387 211.872 85.632V78.048C211.872 77.9413 211.904 77.856 211.968 77.792C212.042 77.7173 212.133 77.68 212.24 77.68H212.992C213.098 77.68 213.184 77.7173 213.248 77.792C213.322 77.856 213.36 77.9413 213.36 78.048V81.12H214.816L216.976 77.92C217.029 77.8453 217.088 77.7867 217.152 77.744C217.216 77.7013 217.301 77.68 217.408 77.68H218.24C218.336 77.68 218.416 77.7013 218.48 77.744C218.544 77.7867 218.576 77.8507 218.576 77.936C218.576 77.9573 218.565 77.9893 218.544 78.032C218.533 78.064 218.517 78.096 218.496 78.128L216.096 81.664L218.816 85.536C218.869 85.6 218.896 85.6693 218.896 85.744C218.896 85.8293 218.864 85.8933 218.8 85.936C218.746 85.9787 218.672 86 218.576 86H217.6C217.504 86 217.424 85.9787 217.36 85.936C217.296 85.8933 217.237 85.8347 217.184 85.76L214.832 82.416H213.36V85.632C213.36 85.7387 213.322 85.8293 213.248 85.904C213.184 85.968 213.098 86 212.992 86H212.24ZM220.834 89.04C220.716 89.04 220.626 89.0027 220.562 88.928C220.498 88.864 220.466 88.7787 220.466 88.672V88.128C220.466 88.0213 220.498 87.9307 220.562 87.856C220.626 87.792 220.716 87.76 220.834 87.76H221.25C221.495 87.76 221.692 87.712 221.842 87.616C221.991 87.52 222.124 87.3547 222.242 87.12C222.37 86.896 222.519 86.5867 222.69 86.192L226.162 77.952C226.194 77.8667 226.236 77.8027 226.29 77.76C226.354 77.7067 226.444 77.68 226.562 77.68H227.266C227.362 77.68 227.442 77.712 227.506 77.776C227.57 77.84 227.602 77.9147 227.602 78C227.602 78.0427 227.596 78.0853 227.586 78.128C227.575 78.16 227.554 78.2133 227.522 78.288L224.482 85.488C224.322 85.872 224.146 86.272 223.954 86.688C223.772 87.104 223.564 87.488 223.33 87.84C223.106 88.2027 222.839 88.4907 222.53 88.704C222.22 88.928 221.858 89.04 221.442 89.04H220.834ZM223.058 85.76L219.826 78.288C219.772 78.16 219.746 78.0693 219.746 78.016C219.756 77.92 219.794 77.84 219.858 77.776C219.922 77.712 219.996 77.68 220.082 77.68H220.834C220.951 77.68 221.036 77.7067 221.09 77.76C221.154 77.8133 221.202 77.8773 221.234 77.952L223.89 84.304L223.058 85.76ZM35.552 110C35.4453 110 35.3547 109.968 35.28 109.904C35.216 109.829 35.184 109.739 35.184 109.632V102.048C35.184 101.941 35.216 101.856 35.28 101.792C35.3547 101.717 35.4453 101.68 35.552 101.68H38.88C39.8827 101.68 40.6347 101.883 41.136 102.288C41.648 102.693 41.904 103.237 41.904 103.92C41.904 104.4 41.8133 104.763 41.632 105.008C41.4507 105.253 41.1947 105.461 40.864 105.632C41.2693 105.803 41.5733 106.08 41.776 106.464C41.9893 106.837 42.096 107.227 42.096 107.632C42.096 108.4 41.824 108.987 41.28 109.392C40.736 109.797 39.9787 110 39.008 110H35.552ZM36.656 108.832H38.88C39.392 108.832 39.8027 108.736 40.112 108.544C40.432 108.341 40.592 108.037 40.592 107.632C40.592 107.205 40.448 106.896 40.16 106.704C39.872 106.501 39.4453 106.4 38.88 106.4H36.656V108.832ZM36.656 105.216H38.784C39.296 105.216 39.7013 105.104 40 104.88C40.3093 104.656 40.464 104.341 40.464 103.936C40.464 103.52 40.3093 103.237 40 103.088C39.7013 102.928 39.296 102.848 38.784 102.848H36.656V105.216ZM50.6186 110C50.512 110 50.4213 109.968 50.3466 109.904C50.2826 109.829 50.2506 109.739 50.2506 109.632V102.96H47.4666C47.36 102.96 47.2693 102.928 47.1946 102.864C47.1306 102.789 47.0986 102.699 47.0986 102.592V102.048C47.0986 101.941 47.1306 101.856 47.1946 101.792C47.2693 101.717 47.36 101.68 47.4666 101.68H54.5066C54.6133 101.68 54.6986 101.717 54.7626 101.792C54.8373 101.856 54.8746 101.941 54.8746 102.048V102.592C54.8746 102.699 54.8373 102.789 54.7626 102.864C54.6986 102.928 54.6133 102.96 54.5066 102.96H51.7226V109.632C51.7226 109.739 51.6906 109.829 51.6266 109.904C51.5626 109.968 51.472 110 51.3546 110H50.6186ZM59.5741 110.16C58.4755 110.16 57.6008 109.824 56.9501 109.152C56.2995 108.469 55.9421 107.541 55.8781 106.368C55.8675 106.229 55.8621 106.053 55.8621 105.84C55.8621 105.616 55.8675 105.435 55.8781 105.296C55.9208 104.539 56.0968 103.877 56.4061 103.312C56.7155 102.736 57.1368 102.293 57.6701 101.984C58.2141 101.675 58.8488 101.52 59.5741 101.52C60.3848 101.52 61.0621 101.691 61.6061 102.032C62.1608 102.373 62.5821 102.859 62.8701 103.488C63.1581 104.117 63.3021 104.853 63.3021 105.696V105.968C63.3021 106.085 63.2648 106.176 63.1901 106.24C63.1261 106.304 63.0408 106.336 62.9341 106.336H57.3981C57.3981 106.347 57.3981 106.368 57.3981 106.4C57.3981 106.432 57.3981 106.459 57.3981 106.48C57.4195 106.917 57.5155 107.328 57.6861 107.712C57.8568 108.085 58.1021 108.389 58.4221 108.624C58.7421 108.859 59.1261 108.976 59.5741 108.976C59.9581 108.976 60.2781 108.917 60.5341 108.8C60.7901 108.683 60.9981 108.555 61.1581 108.416C61.3181 108.267 61.4248 108.155 61.4781 108.08C61.5741 107.941 61.6488 107.861 61.7021 107.84C61.7555 107.808 61.8408 107.792 61.9581 107.792H62.7261C62.8328 107.792 62.9181 107.824 62.9821 107.888C63.0568 107.941 63.0888 108.021 63.0781 108.128C63.0675 108.288 62.9821 108.485 62.8221 108.72C62.6621 108.944 62.4328 109.168 62.1341 109.392C61.8355 109.616 61.4728 109.803 61.0461 109.952C60.6195 110.091 60.1288 110.16 59.5741 110.16ZM57.3981 105.232H61.7821V105.184C61.7821 104.704 61.6915 104.277 61.5101 103.904C61.3395 103.531 61.0888 103.237 60.7581 103.024C60.4275 102.8 60.0328 102.688 59.5741 102.688C59.1155 102.688 58.7208 102.8 58.3901 103.024C58.0701 103.237 57.8248 103.531 57.6541 103.904C57.4835 104.277 57.3981 104.704 57.3981 105.184V105.232ZM70.4633 110C70.3459 110 70.2553 109.968 70.1913 109.904C70.1273 109.829 70.0953 109.739 70.0953 109.632V106.624C69.8073 106.891 69.4553 107.088 69.0393 107.216C68.6339 107.333 68.1699 107.392 67.6473 107.392C66.7086 107.392 65.9779 107.184 65.4553 106.768C64.9433 106.352 64.6873 105.68 64.6873 104.752V102.048C64.6873 101.941 64.7193 101.856 64.7833 101.792C64.8579 101.717 64.9486 101.68 65.0553 101.68H65.8393C65.9459 101.68 66.0313 101.717 66.0953 101.792C66.1699 101.856 66.2073 101.941 66.2073 102.048V104.656C66.2073 105.136 66.3459 105.488 66.6233 105.712C66.9113 105.936 67.3486 106.048 67.9353 106.048C68.5859 106.048 69.1086 105.968 69.5033 105.808C69.8979 105.637 70.0953 105.339 70.0953 104.912V102.048C70.0953 101.941 70.1273 101.856 70.1913 101.792C70.2553 101.717 70.3459 101.68 70.4633 101.68H71.2633C71.3699 101.68 71.4553 101.717 71.5193 101.792C71.5939 101.856 71.6313 101.941 71.6313 102.048V109.632C71.6313 109.739 71.5939 109.829 71.5193 109.904C71.4553 109.968 71.3699 110 71.2633 110H70.4633ZM77.3241 110.16C76.2255 110.16 75.3508 109.824 74.7001 109.152C74.0495 108.469 73.6921 107.541 73.6281 106.368C73.6175 106.229 73.6121 106.053 73.6121 105.84C73.6121 105.616 73.6175 105.435 73.6281 105.296C73.6708 104.539 73.8468 103.877 74.1561 103.312C74.4655 102.736 74.8868 102.293 75.4201 101.984C75.9641 101.675 76.5988 101.52 77.3241 101.52C78.1348 101.52 78.8121 101.691 79.3561 102.032C79.9108 102.373 80.3321 102.859 80.6201 103.488C80.9081 104.117 81.0521 104.853 81.0521 105.696V105.968C81.0521 106.085 81.0148 106.176 80.9401 106.24C80.8761 106.304 80.7908 106.336 80.6841 106.336H75.1481C75.1481 106.347 75.1481 106.368 75.1481 106.4C75.1481 106.432 75.1481 106.459 75.1481 106.48C75.1695 106.917 75.2655 107.328 75.4361 107.712C75.6068 108.085 75.8521 108.389 76.1721 108.624C76.4921 108.859 76.8761 108.976 77.3241 108.976C77.7081 108.976 78.0281 108.917 78.2841 108.8C78.5401 108.683 78.7481 108.555 78.9081 108.416C79.0681 108.267 79.1748 108.155 79.2281 108.08C79.3241 107.941 79.3988 107.861 79.4521 107.84C79.5055 107.808 79.5908 107.792 79.7081 107.792H80.4761C80.5828 107.792 80.6681 107.824 80.7321 107.888C80.8068 107.941 80.8388 108.021 80.8281 108.128C80.8175 108.288 80.7321 108.485 80.5721 108.72C80.4121 108.944 80.1828 109.168 79.8841 109.392C79.5855 109.616 79.2228 109.803 78.7961 109.952C78.3695 110.091 77.8788 110.16 77.3241 110.16ZM75.1481 105.232H79.5321V105.184C79.5321 104.704 79.4415 104.277 79.2601 103.904C79.0895 103.531 78.8388 103.237 78.5081 103.024C78.1775 102.8 77.7828 102.688 77.3241 102.688C76.8655 102.688 76.4708 102.8 76.1401 103.024C75.8201 103.237 75.5748 103.531 75.4041 103.904C75.2335 104.277 75.1481 104.704 75.1481 105.184V105.232ZM83.3333 110C83.2266 110 83.1359 109.968 83.0613 109.904C82.9973 109.829 82.9653 109.739 82.9653 109.632V102.048C82.9653 101.941 82.9973 101.856 83.0613 101.792C83.1359 101.717 83.2266 101.68 83.3333 101.68H84.1013C84.2079 101.68 84.2933 101.717 84.3573 101.792C84.4213 101.856 84.4533 101.941 84.4533 102.048V105.12H88.8213V102.048C88.8213 101.941 88.8533 101.856 88.9173 101.792C88.9919 101.717 89.0826 101.68 89.1893 101.68H89.9413C90.0479 101.68 90.1333 101.717 90.1973 101.792C90.2719 101.856 90.3093 101.941 90.3093 102.048V109.632C90.3093 109.739 90.2719 109.829 90.1973 109.904C90.1333 109.968 90.0479 110 89.9413 110H89.1893C89.0826 110 88.9919 109.968 88.9173 109.904C88.8533 109.829 88.8213 109.739 88.8213 109.632V106.4H84.4533V109.632C84.4533 109.739 84.4213 109.829 84.3573 109.904C84.2933 109.968 84.2079 110 84.1013 110H83.3333ZM93.0673 110C92.9713 110 92.8859 109.968 92.8113 109.904C92.7473 109.829 92.7153 109.749 92.7153 109.664V102.048C92.7153 101.941 92.7473 101.856 92.8113 101.792C92.8859 101.717 92.9766 101.68 93.0833 101.68H93.8513C93.9579 101.68 94.0433 101.717 94.1073 101.792C94.1713 101.856 94.2033 101.941 94.2033 102.048V108.832L93.7873 108.4L98.6353 101.92C98.6886 101.856 98.7473 101.803 98.8113 101.76C98.8753 101.707 98.9553 101.68 99.0513 101.68H99.7873C99.8726 101.68 99.9473 101.712 100.011 101.776C100.086 101.84 100.123 101.915 100.123 102V109.632C100.123 109.739 100.086 109.829 100.011 109.904C99.9473 109.968 99.8619 110 99.7552 110H99.0033C98.8859 110 98.7953 109.968 98.7313 109.904C98.6673 109.829 98.6353 109.739 98.6353 109.632V103.248L99.0833 103.232L94.2033 109.76C94.1606 109.813 94.1073 109.867 94.0433 109.92C93.9793 109.973 93.8939 110 93.7873 110H93.0673ZM105.777 110.16C104.679 110.16 103.804 109.824 103.153 109.152C102.503 108.469 102.145 107.541 102.081 106.368C102.071 106.229 102.065 106.053 102.065 105.84C102.065 105.616 102.071 105.435 102.081 105.296C102.124 104.539 102.3 103.877 102.609 103.312C102.919 102.736 103.34 102.293 103.873 101.984C104.417 101.675 105.052 101.52 105.777 101.52C106.588 101.52 107.265 101.691 107.809 102.032C108.364 102.373 108.785 102.859 109.073 103.488C109.361 104.117 109.505 104.853 109.505 105.696V105.968C109.505 106.085 109.468 106.176 109.393 106.24C109.329 106.304 109.244 106.336 109.137 106.336H103.601C103.601 106.347 103.601 106.368 103.601 106.4C103.601 106.432 103.601 106.459 103.601 106.48C103.623 106.917 103.719 107.328 103.889 107.712C104.06 108.085 104.305 108.389 104.625 108.624C104.945 108.859 105.329 108.976 105.777 108.976C106.161 108.976 106.481 108.917 106.737 108.8C106.993 108.683 107.201 108.555 107.361 108.416C107.521 108.267 107.628 108.155 107.681 108.08C107.777 107.941 107.852 107.861 107.905 107.84C107.959 107.808 108.044 107.792 108.161 107.792H108.929C109.036 107.792 109.121 107.824 109.185 107.888C109.26 107.941 109.292 108.021 109.281 108.128C109.271 108.288 109.185 108.485 109.025 108.72C108.865 108.944 108.636 109.168 108.337 109.392C108.039 109.616 107.676 109.803 107.249 109.952C106.823 110.091 106.332 110.16 105.777 110.16ZM103.601 105.232H107.985V105.184C107.985 104.704 107.895 104.277 107.713 103.904C107.543 103.531 107.292 103.237 106.961 103.024C106.631 102.8 106.236 102.688 105.777 102.688C105.319 102.688 104.924 102.8 104.593 103.024C104.273 103.237 104.028 103.531 103.857 103.904C103.687 104.277 103.601 104.704 103.601 105.184V105.232ZM118.572 110C118.466 110 118.375 109.968 118.3 109.904C118.236 109.829 118.204 109.739 118.204 109.632V100.672L115.548 102.72C115.463 102.784 115.372 102.811 115.276 102.8C115.18 102.789 115.1 102.741 115.036 102.656L114.62 102.128C114.556 102.032 114.53 101.936 114.54 101.84C114.562 101.744 114.615 101.664 114.7 101.6L118.188 98.912C118.263 98.8587 118.332 98.8267 118.396 98.816C118.46 98.8053 118.53 98.8 118.604 98.8H119.42C119.527 98.8 119.612 98.8373 119.676 98.912C119.74 98.976 119.772 99.0613 119.772 99.168V109.632C119.772 109.739 119.74 109.829 119.676 109.904C119.612 109.968 119.527 110 119.42 110H118.572ZM131.354 110C131.237 110 131.146 109.968 131.082 109.904C131.018 109.829 130.986 109.739 130.986 109.632V106.624C130.698 106.891 130.346 107.088 129.93 107.216C129.525 107.333 129.061 107.392 128.538 107.392C127.599 107.392 126.869 107.184 126.346 106.768C125.834 106.352 125.578 105.68 125.578 104.752V102.048C125.578 101.941 125.61 101.856 125.674 101.792C125.749 101.717 125.839 101.68 125.946 101.68H126.73C126.837 101.68 126.922 101.717 126.986 101.792C127.061 101.856 127.098 101.941 127.098 102.048V104.656C127.098 105.136 127.237 105.488 127.514 105.712C127.802 105.936 128.239 106.048 128.826 106.048C129.477 106.048 129.999 105.968 130.394 105.808C130.789 105.637 130.986 105.339 130.986 104.912V102.048C130.986 101.941 131.018 101.856 131.082 101.792C131.146 101.717 131.237 101.68 131.354 101.68H132.154C132.261 101.68 132.346 101.717 132.41 101.792C132.485 101.856 132.522 101.941 132.522 102.048V109.632C132.522 109.739 132.485 109.829 132.41 109.904C132.346 109.968 132.261 110 132.154 110H131.354ZM137.223 110.16C136.689 110.16 136.204 110.053 135.767 109.84C135.329 109.627 134.977 109.339 134.711 108.976C134.444 108.613 134.311 108.203 134.311 107.744C134.311 107.008 134.609 106.421 135.207 105.984C135.804 105.547 136.583 105.259 137.543 105.12L139.927 104.784V104.32C139.927 103.808 139.777 103.408 139.479 103.12C139.191 102.832 138.716 102.688 138.055 102.688C137.575 102.688 137.185 102.784 136.887 102.976C136.599 103.168 136.396 103.413 136.279 103.712C136.215 103.872 136.103 103.952 135.943 103.952H135.223C135.105 103.952 135.015 103.92 134.951 103.856C134.897 103.781 134.871 103.696 134.871 103.6C134.871 103.44 134.929 103.243 135.047 103.008C135.175 102.773 135.367 102.544 135.623 102.32C135.879 102.096 136.204 101.909 136.599 101.76C137.004 101.6 137.495 101.52 138.071 101.52C138.711 101.52 139.249 101.605 139.687 101.776C140.124 101.936 140.465 102.155 140.711 102.432C140.967 102.709 141.148 103.024 141.255 103.376C141.372 103.728 141.431 104.085 141.431 104.448V109.632C141.431 109.739 141.393 109.829 141.319 109.904C141.255 109.968 141.169 110 141.063 110H140.327C140.209 110 140.119 109.968 140.055 109.904C139.991 109.829 139.959 109.739 139.959 109.632V108.944C139.82 109.136 139.633 109.328 139.399 109.52C139.164 109.701 138.871 109.856 138.519 109.984C138.167 110.101 137.735 110.16 137.223 110.16ZM137.559 108.96C137.996 108.96 138.396 108.869 138.759 108.688C139.121 108.496 139.404 108.203 139.607 107.808C139.82 107.413 139.927 106.917 139.927 106.32V105.872L138.071 106.144C137.313 106.251 136.743 106.432 136.359 106.688C135.975 106.933 135.783 107.248 135.783 107.632C135.783 107.931 135.868 108.181 136.039 108.384C136.22 108.576 136.444 108.72 136.711 108.816C136.988 108.912 137.271 108.96 137.559 108.96ZM147.091 110.16C146.334 110.16 145.678 110.016 145.123 109.728C144.579 109.429 144.158 109.008 143.859 108.464C143.56 107.909 143.4 107.248 143.379 106.48C143.368 106.32 143.363 106.107 143.363 105.84C143.363 105.573 143.368 105.36 143.379 105.2C143.4 104.432 143.56 103.776 143.859 103.232C144.158 102.677 144.579 102.256 145.123 101.968C145.678 101.669 146.334 101.52 147.091 101.52C147.71 101.52 148.238 101.605 148.675 101.776C149.123 101.947 149.491 102.165 149.779 102.432C150.067 102.699 150.28 102.987 150.419 103.296C150.568 103.605 150.648 103.899 150.659 104.176C150.67 104.283 150.638 104.368 150.563 104.432C150.488 104.496 150.398 104.528 150.291 104.528H149.523C149.416 104.528 149.336 104.507 149.283 104.464C149.23 104.411 149.176 104.325 149.123 104.208C148.931 103.685 148.67 103.317 148.339 103.104C148.008 102.891 147.598 102.784 147.107 102.784C146.467 102.784 145.944 102.981 145.539 103.376C145.144 103.771 144.931 104.405 144.899 105.28C144.888 105.664 144.888 106.037 144.899 106.4C144.931 107.285 145.144 107.925 145.539 108.32C145.944 108.704 146.467 108.896 147.107 108.896C147.598 108.896 148.008 108.789 148.339 108.576C148.67 108.363 148.931 107.995 149.123 107.472C149.176 107.355 149.23 107.275 149.283 107.232C149.336 107.179 149.416 107.152 149.523 107.152H150.291C150.398 107.152 150.488 107.184 150.563 107.248C150.638 107.312 150.67 107.397 150.659 107.504C150.648 107.728 150.6 107.957 150.515 108.192C150.43 108.427 150.291 108.667 150.099 108.912C149.918 109.147 149.688 109.36 149.411 109.552C149.134 109.733 148.798 109.883 148.403 110C148.019 110.107 147.582 110.16 147.091 110.16ZM154.879 110.16C154.346 110.16 153.86 110.053 153.423 109.84C152.986 109.627 152.634 109.339 152.367 108.976C152.1 108.613 151.967 108.203 151.967 107.744C151.967 107.008 152.266 106.421 152.863 105.984C153.46 105.547 154.239 105.259 155.199 105.12L157.583 104.784V104.32C157.583 103.808 157.434 103.408 157.135 103.12C156.847 102.832 156.372 102.688 155.711 102.688C155.231 102.688 154.842 102.784 154.543 102.976C154.255 103.168 154.052 103.413 153.935 103.712C153.871 103.872 153.759 103.952 153.599 103.952H152.879C152.762 103.952 152.671 103.92 152.607 103.856C152.554 103.781 152.527 103.696 152.527 103.6C152.527 103.44 152.586 103.243 152.703 103.008C152.831 102.773 153.023 102.544 153.279 102.32C153.535 102.096 153.86 101.909 154.255 101.76C154.66 101.6 155.151 101.52 155.727 101.52C156.367 101.52 156.906 101.605 157.343 101.776C157.78 101.936 158.122 102.155 158.367 102.432C158.623 102.709 158.804 103.024 158.911 103.376C159.028 103.728 159.087 104.085 159.087 104.448V109.632C159.087 109.739 159.05 109.829 158.975 109.904C158.911 109.968 158.826 110 158.719 110H157.983C157.866 110 157.775 109.968 157.711 109.904C157.647 109.829 157.615 109.739 157.615 109.632V108.944C157.476 109.136 157.29 109.328 157.055 109.52C156.82 109.701 156.527 109.856 156.175 109.984C155.823 110.101 155.391 110.16 154.879 110.16ZM155.215 108.96C155.652 108.96 156.052 108.869 156.415 108.688C156.778 108.496 157.06 108.203 157.263 107.808C157.476 107.413 157.583 106.917 157.583 106.32V105.872L155.727 106.144C154.97 106.251 154.399 106.432 154.015 106.688C153.631 106.933 153.439 107.248 153.439 107.632C153.439 107.931 153.524 108.181 153.695 108.384C153.876 108.576 154.1 108.72 154.367 108.816C154.644 108.912 154.927 108.96 155.215 108.96Z" fill="#073BA1"/>
</g>
<defs>
<filter id="filter0_d_136_172" x="0" y="0" width="388" height="188" filterUnits="userSpaceOnUse" color-interpolation-filters="sRGB">
<feFlood flood-opacity="0" result="BackgroundImageFix"/>
<feColorMatrix in="SourceAlpha" type="matrix" values="0 0 0 0 0 0 0 0 0 0 0 0 0 0 0 0 0 0 127 0" result="hardAlpha"/>
<feOffset dy="1"/>
<feGaussianBlur stdDeviation="2"/>
<feComposite in2="hardAlpha" operator="out"/>
<feColorMatrix type="matrix" values="0 0 0 0 0.027451 0 0 0 0 0.231373 0 0 0 0 0.631373 0 0 0 0.1 0"/>
<feBlend mode="normal" in2="BackgroundImageFix" result="effect1_dropShadow_136_172"/>
<feBlend mode="normal" in="SourceGraphic" in2="effect1_dropShadow_136_172" result="shape"/>
</filter>
</defs>
</svg>
