<svg width="400" height="380" viewBox="0 0 400 380" fill="none" xmlns="http://www.w3.org/2000/svg">
<circle cx="200" cy="190" r="185" fill="#EBF2FF"/>
<path d="M55.5058 328.682C53.9432 328.773 53.0796 326.968 54.2618 325.916L54.3794 325.481C54.364 325.446 54.3484 325.411 54.3327 325.376C52.7525 321.872 47.3969 321.896 45.8301 325.406C44.4395 328.521 42.6689 331.641 42.233 334.934C42.0376 336.388 42.1255 337.869 42.4724 339.296C39.2139 332.676 37.4992 325.448 37.4992 318.178C37.4992 316.352 37.6067 314.526 37.8265 312.704C38.0072 311.214 38.2564 309.732 38.5788 308.265C40.3228 300.332 44.0992 292.777 49.5462 286.466C52.1648 285.135 54.3485 283.054 55.6675 280.56C56.1413 279.66 56.5126 278.693 56.6885 277.707C56.3905 277.743 55.5649 273.522 55.7896 273.263C55.3743 272.677 54.631 272.386 54.1775 271.814C51.9218 268.97 48.8139 269.466 47.1915 273.331C43.7257 274.958 43.6921 277.656 45.8187 280.251C47.1717 281.902 47.3576 284.135 48.5448 285.903C48.4226 286.048 48.2956 286.189 48.1735 286.334C45.9338 289.006 43.9968 291.877 42.3638 294.894C42.8253 291.541 42.1439 287.502 40.9823 284.899C39.6601 281.932 37.1817 279.434 34.9991 276.869C32.3776 273.789 27.0018 275.133 26.5399 279.038C26.5355 279.076 26.5311 279.114 26.5269 279.151C26.8511 279.321 27.1686 279.502 27.4788 279.693C29.2484 280.781 28.6368 283.332 26.5401 283.633L26.4927 283.64C26.6099 284.726 26.8102 285.803 27.1033 286.861C24.3034 296.931 30.3482 300.599 38.9793 300.764C39.1699 300.855 39.3556 300.946 39.5461 301.032C38.6716 303.322 37.973 305.671 37.4552 308.051C36.9911 310.155 36.6686 312.281 36.4879 314.417C36.2632 317.111 36.2827 319.819 36.527 322.508L36.5123 322.413C35.8919 319.451 34.1626 316.684 31.6515 314.766C27.9108 311.909 22.6259 310.856 18.5903 308.559C16.6477 307.453 14.1585 308.882 14.4975 310.977L14.514 311.077C15.1149 311.304 15.7011 311.568 16.2678 311.863C16.592 312.033 16.9096 312.214 17.2198 312.405C18.9893 313.493 18.3778 316.044 16.2811 316.345L16.2336 316.352C16.1994 316.357 16.1701 316.361 16.1359 316.366C17.1667 318.642 18.603 320.755 20.4007 322.576C22.1515 331.367 29.6708 332.201 37.7141 329.641H37.719C38.5983 333.203 39.8832 336.683 41.5344 340H55.1643C55.2132 339.859 55.2571 339.714 55.3011 339.573C54.0407 339.646 52.7705 339.577 51.5296 339.364C52.5409 338.21 53.5521 337.047 54.5634 335.893C54.5878 335.87 54.6074 335.847 54.6269 335.825C55.1398 335.234 55.6577 334.648 56.1706 334.057L56.1709 334.057C56.203 332.244 55.9693 330.436 55.5062 328.683L55.5058 328.682Z" fill="#DDDDDD"/>
<path d="M390 339C390 339.555 389.636 340 389.182 340H10.8182C10.3644 340 10 339.555 10 339C10 338.445 10.3644 338 10.8182 338H389.182C389.636 338 390 338.445 390 339Z" fill="#DDDDDD"/>
<path d="M265.157 44.9659C274.6 37.0291 286.156 31.9972 298.418 30.4826C310.68 28.9681 323.119 31.0361 334.223 36.4351C345.326 41.8341 354.615 50.3312 360.959 60.8926C367.302 71.4539 370.427 83.6241 369.953 95.9222C369.479 108.22 365.427 120.116 358.289 130.162C351.151 140.208 341.236 147.971 329.749 152.506C318.263 157.041 305.701 158.153 293.591 155.706C281.482 153.26 270.348 147.36 261.543 138.726L183.36 204.436C182.17 205.432 180.632 205.918 179.082 205.786C177.533 205.655 176.099 204.917 175.096 203.734C174.092 202.552 173.6 201.021 173.727 199.477C173.855 197.934 174.592 196.504 175.776 195.5L175.785 195.493L253.968 129.783C244.885 116.8 240.998 100.906 243.068 85.2158C245.138 69.5261 253.015 55.1718 265.157 44.9659ZM270.197 123.456C276.288 130.646 284.382 135.875 293.457 138.483C302.531 141.09 312.179 140.959 321.178 138.106C330.178 135.252 338.126 129.804 344.017 122.452C349.909 115.099 353.479 106.171 354.276 96.7971C355.074 87.4233 353.062 78.0245 348.497 69.7893C343.931 61.554 337.016 54.8522 328.627 50.5313C320.237 46.2104 310.75 44.4645 301.364 45.5143C291.979 46.5642 283.116 50.3627 275.898 56.4294C266.218 64.5647 260.18 76.1967 259.111 88.7666C258.042 101.337 262.029 113.815 270.197 123.456Z" fill="#042668"/>
<path opacity="0.3" d="M337.489 129.134C346.65 121.434 352.569 110.584 354.07 98.7382C355.571 86.8925 352.545 74.9178 345.592 65.1917C346.505 66.1075 347.388 67.0667 348.24 68.0693C352.285 72.8431 355.345 78.3637 357.247 84.3157C359.149 90.2677 359.856 96.5346 359.327 102.759C358.797 108.983 357.042 115.042 354.162 120.59C351.282 126.139 347.332 131.068 342.539 135.096C337.747 139.124 332.204 142.172 326.229 144.067C320.253 145.962 313.961 146.665 307.713 146.138C301.464 145.611 295.381 143.863 289.81 140.994C284.24 138.125 279.291 134.191 275.247 129.417C274.397 128.414 273.596 127.386 272.845 126.333C281.301 134.796 292.643 139.782 304.618 140.301C316.594 140.819 328.327 136.833 337.489 129.134Z" fill="black"/>
<path d="M107.54 206.892C106.93 206.15 106.49 205.283 106.252 204.352C106.014 203.422 105.984 202.451 106.163 201.508C106.343 200.565 106.728 199.672 107.291 198.893C107.854 198.114 108.582 197.468 109.424 197L123.674 138.9L134.07 142.206L118.682 199.909C119.378 201.368 119.513 203.032 119.06 204.584C118.607 206.136 117.599 207.469 116.225 208.33C114.852 209.19 113.209 209.52 111.609 209.255C110.008 208.99 108.56 208.149 107.54 206.892H107.54Z" fill="#FFDEC2"/>
<path d="M114.906 169.729L122.503 176.257L133.132 185.384L137.827 161.46L138.318 158.972L138.705 156.997L127.935 138.311L118.956 138.824L118.343 138.861L118.33 138.996L118.189 140.249L116.348 156.74L116.305 157.138L114.906 169.729Z" fill="#EC3D5A"/>
<path d="M164.564 332.125L172.087 332.124L175.667 303.219L164.563 303.22L164.564 332.125Z" fill="#FFDEC2"/>
<path d="M162.645 339.389L186.905 339.388V339.082C186.904 336.588 185.909 334.196 184.139 332.432C182.368 330.668 179.966 329.677 177.462 329.677H177.462L162.645 329.678L162.645 339.389Z" fill="#2F2E41"/>
<path d="M86.0135 332.736L93.5366 332.735L97.1161 303.83L86.0116 303.831L86.0135 332.736Z" fill="#FFDEC2"/>
<path d="M84.0945 340L108.354 339.999V339.694C108.353 337.199 107.359 334.807 105.588 333.043C103.817 331.28 101.416 330.289 98.9113 330.289H98.9107L84.094 330.289L84.0945 340Z" fill="#2F2E41"/>
<path d="M150.684 179.057L150.266 182.78L122.958 180.029L122.503 176.258L120.441 159.063L120.325 158.085L118.189 140.249L118.048 139.075L118.33 138.996L118.956 138.824L128.07 136.324H143.516L152.966 138.305C153.571 138.432 154.107 138.779 154.469 139.278C154.831 139.777 154.994 140.393 154.926 141.005L154.844 141.734L153.586 153.024L150.684 179.057Z" fill="#EC3D5A"/>
<path d="M100.251 324.285L80 321.229L104.547 205.702C104.547 205.702 105.161 192.865 122.958 180.029L150.266 182.779L154.255 196.533V205.702L183.712 321.84L161.006 324.897L129.714 224.968L100.251 324.285Z" fill="#073BA1"/>
<path d="M137.659 128.591C129.335 128.591 122.587 121.87 122.587 113.578C122.587 105.287 129.335 98.5649 137.659 98.5649C145.984 98.5649 152.732 105.287 152.732 113.578C152.732 121.87 145.984 128.591 137.659 128.591Z" fill="#FFDEC2"/>
<path d="M121.828 176.58L151.645 180.463L151.088 184.706L121.271 180.822L121.828 176.58Z" fill="#EC3D5A"/>
<path d="M191.639 181.742C191.354 181.926 191.084 182.132 190.831 182.358L161.34 174.87L159.328 167.783L148.194 169.41L150.532 182.3C150.721 183.341 151.243 184.293 152.022 185.013C152.8 185.734 153.792 186.183 154.849 186.294L189.283 189.906C189.844 191.083 190.752 192.061 191.885 192.712C193.019 193.363 194.324 193.654 195.628 193.548C196.932 193.441 198.172 192.942 199.184 192.117C200.196 191.291 200.932 190.178 201.293 188.926C201.654 187.673 201.625 186.341 201.207 185.106C200.79 183.871 200.005 182.792 198.957 182.012C197.909 181.233 196.648 180.789 195.34 180.741C194.033 180.693 192.742 181.042 191.639 181.742Z" fill="#FFDEC2"/>
<path d="M146.277 142.131L151.494 138.158C152.904 137.625 154.837 139.139 155.176 140.603L162.54 170.555L147.198 181.557L145.05 178.195L146.277 142.131Z" fill="#EC3D5A"/>
<path d="M116.348 156.74C117.65 157.255 118.977 157.704 120.325 158.085C120.754 158.214 121.196 158.336 121.632 158.452C124.504 159.246 127.455 159.721 130.432 159.87C131.714 159.924 132.997 159.889 134.274 159.766C135.644 159.63 136.998 159.364 138.318 158.971C138.361 158.959 138.41 158.947 138.453 158.935C141.197 158.159 143.713 156.735 145.787 154.784C146.25 154.335 146.682 153.855 147.081 153.348C148.227 151.95 149.068 150.329 149.55 148.59C150.032 146.85 150.144 145.029 149.88 143.244C149.828 142.92 149.759 142.6 149.671 142.284C149.44 141.424 149.134 140.585 148.757 139.778C148.591 139.399 148.407 139.026 148.21 138.659L141.276 136.324H128.07L118.956 138.824L118.343 138.861L118.33 138.996L118.048 139.075L118.189 140.249L116.348 156.74Z" fill="black"/>
<path d="M149.209 101.149C152.028 100.804 155.121 101.048 157.318 102.84C159.515 104.633 160.224 108.358 158.144 110.284C156.303 111.989 153.423 111.588 150.956 112.073C148.831 112.547 146.928 113.718 145.55 115.398C144.172 117.077 143.4 119.169 143.357 121.337C143.393 127.556 149.386 132.266 150.462 138.392C151.197 142.573 149.426 146.973 146.366 149.926C143.305 152.88 139.098 154.476 134.859 154.908C130.62 155.34 126.333 154.68 122.213 153.595C118.076 152.506 114.004 150.96 110.532 148.468C107.061 145.976 104.216 142.462 103.101 138.347C101.987 134.232 102.787 129.514 105.659 126.354C108.948 122.736 114.419 121.492 117.263 117.518C120.452 113.063 119.272 106.719 121.853 101.89C123.576 98.6654 126.839 96.4661 130.317 95.3075C133.795 94.1489 137.509 93.9202 141.174 93.808C143.101 93.749 145.087 93.7294 146.882 94.429C148.677 95.1287 150.255 96.7232 150.348 98.6409C150.441 100.559 149.209 101.149 149.209 101.149Z" fill="#2F2E41"/>
<path opacity="0.3" d="M286.75 49.791C281.15 52.6004 276.143 56.5161 272.015 61.3144C267.888 66.1127 264.72 71.6996 262.693 77.7563C260.666 83.8129 259.82 90.2205 260.202 96.6133C260.585 103.006 262.189 109.259 264.922 115.015C266.622 118.591 268.737 121.942 271.221 124.996C275.054 129.68 279.711 133.58 284.949 136.493C294.305 141.705 305.095 143.532 315.584 141.682C326.072 139.832 335.651 134.411 342.782 126.291C349.912 118.171 354.179 107.822 354.897 96.9094C355.616 85.9962 352.744 75.1517 346.743 66.1183C340.317 56.4454 330.719 49.4726 319.703 46.4747C308.686 43.4768 296.988 44.6539 286.747 49.791H286.75Z" fill="white"/>
<path opacity="0.3" d="M333.925 53.0696L284.949 136.478C290.284 139.456 296.124 141.356 302.154 142.075L346.743 66.1186C343.33 60.9591 338.978 56.5278 333.925 53.0696Z" fill="white"/>
<path opacity="0.3" d="M317.612 45.9597L271.221 124.996C273.157 127.368 275.311 129.542 277.654 131.488L326.209 48.7828C323.438 47.5598 320.559 46.6144 317.612 45.9597Z" fill="white"/>
<path fill-rule="evenodd" clip-rule="evenodd" d="M302.886 185.664C283.485 179.021 269.173 185.646 260.302 204.658L279.382 212.547C282.395 205.936 288.213 202.469 295.492 204.612C302.637 206.715 308.456 211.03 308.488 216.523C308.522 222.456 301.325 226.358 298.038 227.886C291.951 230.723 283.756 231.24 278.182 234.712C272.72 238.114 269.475 244.219 265.99 251.893L282.806 258.845C285.099 253.966 287.402 249.336 290.945 247.179C296.706 243.676 303.18 243.595 309.43 241.532C315.402 239.559 321.924 236.902 325.637 230.15C336.755 209.947 323.617 192.759 302.886 185.664Z" fill="#073BA1"/>
<path d="M263.042 283.259C268.906 285.683 275.594 282.967 277.982 277.192C280.37 271.418 277.552 264.771 271.688 262.347C265.825 259.923 259.136 262.639 256.748 268.413C254.361 274.188 257.179 280.834 263.042 283.259Z" fill="#073BA1"/>
<path fill-rule="evenodd" clip-rule="evenodd" d="M170.158 40.8401C155.901 45.627 150.525 55.8675 153.841 70.8921L168.467 66.9732C167.272 61.7811 169.112 57.1671 174.305 55.168C179.403 53.2053 184.715 53.1213 187.184 56.3043C189.85 59.7427 187.401 65.2248 186.17 67.5806C183.892 71.9472 179.352 75.9039 177.656 80.411C175.994 84.8277 176.828 89.8294 178.223 95.8508L191.113 92.3969C190.271 88.5335 189.546 84.8112 190.646 81.9752C192.437 77.3665 196.17 74.4314 198.888 70.4422C201.484 66.6299 204.095 62.1738 203.245 56.5876C200.705 39.8672 185.39 35.7223 170.158 40.8401Z" fill="#073BA1"/>
<path d="M190.498 115.424C194.992 114.22 197.675 109.655 196.488 105.229C195.302 100.802 190.697 98.19 186.203 99.3943C181.708 100.599 179.026 105.163 180.212 109.59C181.398 114.016 186.003 116.628 190.498 115.424Z" fill="#073BA1"/>
<path fill-rule="evenodd" clip-rule="evenodd" d="M328.711 55.4247C314.47 50.5932 303.987 55.4814 297.521 69.443L311.53 75.1884C313.726 70.3341 317.986 67.779 323.328 69.3356C328.572 70.8632 332.849 74.0154 332.884 78.0434C332.922 82.3945 327.651 85.2714 325.244 86.399C320.786 88.4923 314.777 88.8884 310.697 91.4463C306.698 93.9525 304.331 98.4367 301.791 104.072L314.138 109.135C315.81 105.552 317.489 102.152 320.082 100.562C324.3 97.9815 329.048 97.9085 333.627 96.3823C338.002 94.9228 342.78 92.9607 345.489 88.0016C353.601 73.1618 343.93 60.5842 328.711 55.4247Z" fill="#EC3D5A"/>
<path d="M299.695 127.08C304 128.846 308.9 126.84 310.639 122.6C312.377 118.36 310.297 113.492 305.992 111.726C301.687 109.961 296.787 111.966 295.048 116.206C293.309 120.446 295.39 125.315 299.695 127.08Z" fill="#EC3D5A"/>
</svg>
