<svg width="340" height="320" viewBox="0 0 340 320" fill="none" xmlns="http://www.w3.org/2000/svg">
<g clip-path="url(#clip0_492_5903)">
<circle cx="170" cy="160" r="150" fill="#EBF2FF"/>
<path d="M266.424 287.468C266.605 287.746 266.861 287.965 267.157 288.096C267.454 288.228 267.777 288.265 268.083 288.203C268.389 288.141 268.663 287.982 268.868 287.75C269.073 287.517 269.198 287.22 269.228 286.9C269.327 286.779 269.398 286.692 269.497 286.571C270.291 286.392 271.135 286.464 271.92 286.777C272.705 287.09 273.396 287.63 273.903 288.329C274.411 289.027 274.713 289.852 274.77 290.697C274.827 291.542 274.636 292.369 274.223 293.072C271.934 297.062 269.852 301.595 265.392 303.273C283.203 300.526 297.878 286.626 302.092 268.836C301.553 265.138 302.458 261.18 304.918 258.559C305.45 260.199 307.656 261.141 308.253 259.194C308.444 258.398 308.629 257.601 308.82 256.805C317.498 258.274 313.881 270.01 303.072 269.293C302.236 272.655 301.054 275.896 299.543 278.963C301.927 276.799 304.815 275.279 307.972 274.529C310.972 273.911 314.243 274.435 317.404 274.696C321.252 275.01 323.128 279.981 320.278 282.433C318.366 280.97 315.666 282.534 316.85 284.925C310.785 288.417 302.75 288.175 296.369 284.491C292.527 290.286 287.468 295.096 281.528 298.6C288.746 294.892 295.69 301.27 302.032 304.663C302.47 304.854 302.853 305.168 303.133 305.567C303.413 305.966 303.579 306.433 303.61 306.91C303.641 307.388 303.536 307.855 303.308 308.255C303.08 308.656 302.738 308.972 302.324 309.165C301.532 308.637 300.696 308.188 299.828 307.824C299.418 307.655 298.975 307.618 298.56 307.716C298.145 307.814 297.779 308.044 297.51 308.373C297.242 308.702 297.086 309.115 297.062 309.555C297.038 309.994 297.149 310.44 297.378 310.829C289.378 312.556 280.391 308.65 275.4 301.606C272.18 302.89 268.816 303.819 265.363 304.377L257.921 293.947C258.002 293.833 258.09 293.719 258.174 293.608C258.806 294.614 259.552 295.545 260.394 296.379C261.393 291.806 261.423 288.8 266.424 287.468L266.424 287.468Z" fill="#F1F6FB"/>
<path d="M235.926 30.4408L147.297 14.8131C133.512 12.3825 120.301 21.9642 117.788 36.2144L80.8704 245.584C78.3577 259.834 87.4953 273.357 101.28 275.787L189.909 291.415C203.693 293.845 216.905 284.264 219.418 270.013L256.335 60.644C258.848 46.3938 249.71 32.8713 235.926 30.4408Z" fill="#042668"/>
<path d="M253.998 60.2341L217.081 269.602C215.98 275.801 212.547 281.325 207.532 284.961C202.518 288.598 196.334 290.05 190.335 289L101.707 273.372C95.7104 272.308 90.3953 268.827 86.9273 263.695C83.4594 258.563 82.1219 252.198 83.2082 245.997L120.125 36.6288C121.226 30.4297 124.659 24.9061 129.674 21.2696C134.688 17.6331 140.873 16.1807 146.871 17.2311L158.461 19.2747L157.731 23.4133C157.401 25.287 157.804 27.2109 158.852 28.7617C159.9 30.3126 161.507 31.3634 163.319 31.6831L215.1 40.8135C216.913 41.1329 218.782 40.6951 220.297 39.5962C221.813 38.4973 222.849 36.8273 223.18 34.9537L223.91 30.815L235.499 32.8586C241.496 33.9233 246.811 37.4034 250.279 42.5355C253.747 47.6676 255.084 54.0326 253.998 60.2341Z" fill="#073BA1"/>
<path d="M112.365 63.2415C111.915 63.1615 111.515 62.8999 111.254 62.5143C110.994 62.1286 110.893 61.6503 110.975 61.1843L111.595 57.6695C111.677 57.2034 111.935 56.788 112.312 56.5146C112.689 56.2413 113.154 56.1324 113.605 56.2119C114.055 56.2914 114.455 56.5528 114.716 56.9385C114.977 57.3243 115.077 57.8029 114.995 58.269L114.375 61.7838C114.292 62.2496 114.034 62.6647 113.657 62.938C113.281 63.2113 112.816 63.3204 112.365 63.2415Z" fill="#073BA1"/>
<path d="M109.187 81.2651C108.736 81.1851 108.337 80.9236 108.076 80.5379C107.816 80.1523 107.715 79.674 107.797 79.2079L109.503 69.5328C109.585 69.0667 109.843 68.6513 110.22 68.3779C110.597 68.1046 111.062 67.9956 111.513 68.0751C111.964 68.1546 112.363 68.416 112.624 68.8018C112.885 69.1876 112.985 69.6662 112.903 70.1323L111.197 79.8074C111.114 80.2733 110.856 80.6884 110.479 80.9616C110.103 81.2349 109.638 81.344 109.187 81.2651Z" fill="#073BA1"/>
<path d="M106.632 95.7534C106.182 95.6734 105.782 95.4118 105.522 95.0262C105.261 94.6405 105.161 94.1622 105.242 93.6962L106.948 84.0211C107.03 83.555 107.288 83.1396 107.665 82.8662C108.042 82.5928 108.507 82.4839 108.958 82.5634C109.409 82.6429 109.809 82.9043 110.069 83.2901C110.33 83.6759 110.43 84.1545 110.348 84.6206L108.642 94.2957C108.56 94.7616 108.302 95.1766 107.925 95.4499C107.548 95.7232 107.083 95.8323 106.632 95.7534Z" fill="#073BA1"/>
<path d="M247.424 112.425C246.973 112.345 246.574 112.084 246.313 111.698C246.053 111.312 245.952 110.834 246.034 110.368L250.196 86.7603C250.279 86.2942 250.536 85.8788 250.913 85.6055C251.29 85.3321 251.755 85.2232 252.206 85.3027C252.657 85.3822 253.057 85.6436 253.317 86.0294C253.578 86.4152 253.678 86.8937 253.596 87.3598L249.434 110.968C249.351 111.433 249.093 111.849 248.716 112.122C248.339 112.395 247.875 112.504 247.424 112.425Z" fill="#073BA1"/>
<path d="M193.842 31.3317L180.667 29.0086C180.385 28.9589 180.135 28.7955 179.972 28.5544C179.809 28.3133 179.747 28.0142 179.798 27.7229C179.849 27.4316 180.011 27.1719 180.246 27.0011C180.482 26.8302 180.772 26.7622 181.054 26.8119L194.229 29.1349C194.511 29.1846 194.761 29.348 194.923 29.5891C195.086 29.8302 195.149 30.1293 195.098 30.4206C195.046 30.7119 194.885 30.9716 194.65 31.1424C194.414 31.3133 194.123 31.3814 193.842 31.3317Z" fill="white"/>
<path d="M200.68 32.3106C201.15 32.3934 201.6 32.0671 201.685 31.5818C201.771 31.0965 201.46 30.636 200.99 30.5532C200.521 30.4704 200.071 30.7967 199.985 31.282C199.9 31.7673 200.211 32.2278 200.68 32.3106Z" fill="white"/>
<path d="M151.571 28.7368L140.097 26.7135C139.533 26.6141 139.033 26.2874 138.707 25.8051C138.382 25.3229 138.256 24.7247 138.359 24.1421C138.462 23.5594 138.784 23.0402 139.255 22.6985C139.726 22.3568 140.308 22.2206 140.871 22.32L152.346 24.3433C152.91 24.4427 153.409 24.7694 153.735 25.2517C154.061 25.7339 154.186 26.3321 154.084 26.9148C153.981 27.4974 153.659 28.0166 153.187 28.3583C152.716 28.7 152.135 28.8362 151.571 28.7368Z" fill="#073BA1"/>
<path d="M226.833 41.7816C227.89 41.9678 228.902 41.2337 229.094 40.1417C229.287 39.0498 228.587 38.0137 227.531 37.8275C226.474 37.6412 225.462 38.3754 225.269 39.4673C225.077 40.5592 225.777 41.5954 226.833 41.7816Z" fill="#5776D2"/>
<path d="M232.397 42.7621C233.453 42.9483 234.465 42.2141 234.658 41.1222C234.85 40.0303 234.15 38.9942 233.094 38.8079C232.038 38.6217 231.025 39.3559 230.833 40.4478C230.64 41.5397 231.34 42.5758 232.397 42.7621Z" fill="#5776D2"/>
<path d="M237.96 43.7435C239.016 43.9298 240.028 43.1956 240.221 42.1037C240.413 41.0118 239.713 39.9756 238.657 39.7894C237.601 39.6031 236.588 40.3373 236.396 41.4292C236.203 42.5211 236.904 43.5573 237.96 43.7435Z" fill="#5776D2"/>
<rect width="123.556" height="217.141" rx="5" transform="matrix(0.984762 0.17391 -0.173893 0.984764 126.766 35.2231)" fill="#EBF2FF"/>
<path d="M220.244 110.571L134.124 95.3387C132.727 95.0899 131.489 94.2786 130.682 93.0827C129.875 91.8868 129.564 90.404 129.818 88.9596L131.94 76.9608C132.197 75.5169 132.997 74.2306 134.166 73.3842C135.334 72.5377 136.775 72.2002 138.172 72.4456L224.292 87.6781C225.689 87.9269 226.927 88.7382 227.734 89.9341C228.541 91.1299 228.852 92.6128 228.598 94.0572L226.476 106.056C226.219 107.5 225.419 108.786 224.25 109.633C223.082 110.479 221.641 110.817 220.244 110.571Z" fill="#B2C6FA"/>
<path d="M190.034 91.3054L164.659 86.8173C164.358 86.764 164.091 86.5893 163.918 86.3316C163.744 86.0739 163.677 85.7542 163.732 85.443C163.787 85.1318 163.959 84.8544 164.211 84.672C164.463 84.4896 164.773 84.4171 165.074 84.4703L190.449 88.9584C190.75 89.0117 191.017 89.1864 191.191 89.4441C191.365 89.7018 191.432 90.0215 191.377 90.3327C191.322 90.6439 191.149 90.9212 190.897 91.1036C190.646 91.2861 190.335 91.3586 190.034 91.3054Z" fill="#C9EAFF"/>
<path d="M213.298 102.076L163.234 93.2211C162.933 93.1678 162.666 92.9931 162.492 92.7354C162.318 92.4777 162.252 92.158 162.307 91.8468C162.362 91.5356 162.534 91.2583 162.786 91.0759C163.038 90.8934 163.348 90.8209 163.649 90.8741L213.713 99.7291C214.014 99.7823 214.281 99.957 214.455 100.215C214.628 100.472 214.695 100.792 214.64 101.103C214.585 101.415 214.413 101.692 214.161 101.874C213.909 102.057 213.599 102.129 213.298 102.076Z" fill="#C9EAFF"/>
<path d="M149.424 94.3547C153.628 95.0982 157.658 92.1783 158.426 87.8331C159.195 83.4878 156.41 79.3625 152.207 78.6191C148.004 77.8756 143.973 80.7955 143.205 85.1408C142.437 89.4861 145.221 93.6113 149.424 94.3547Z" fill="#C9EAFF"/>
<path d="M213.817 146.967L127.697 131.734C126.3 131.485 125.062 130.674 124.255 129.478C123.448 128.282 123.137 126.8 123.391 125.355L125.513 113.356C125.77 111.912 126.57 110.626 127.739 109.78C128.907 108.933 130.348 108.596 131.745 108.841L217.865 124.074C219.262 124.322 220.499 125.134 221.307 126.33C222.114 127.525 222.425 129.008 222.171 130.453L220.049 142.452C219.792 143.895 218.992 145.182 217.823 146.028C216.655 146.875 215.214 147.212 213.817 146.967Z" fill="#B2C6FA"/>
<path d="M183.607 127.701L158.232 123.213C157.931 123.16 157.664 122.985 157.49 122.727C157.316 122.469 157.25 122.15 157.305 121.839C157.36 121.527 157.532 121.25 157.784 121.068C158.036 120.885 158.346 120.813 158.647 120.866L184.022 125.354C184.323 125.407 184.59 125.582 184.764 125.84C184.938 126.097 185.004 126.417 184.949 126.728C184.894 127.039 184.722 127.317 184.47 127.499C184.218 127.682 183.908 127.754 183.607 127.701Z" fill="#C9EAFF"/>
<path d="M206.87 138.472L156.807 129.617C156.506 129.563 156.239 129.389 156.065 129.131C155.891 128.873 155.824 128.554 155.879 128.242C155.934 127.931 156.107 127.654 156.359 127.471C156.61 127.289 156.921 127.216 157.222 127.27L207.285 136.125C207.586 136.178 207.853 136.353 208.027 136.61C208.201 136.868 208.268 137.188 208.213 137.499C208.158 137.81 207.986 138.087 207.734 138.27C207.482 138.452 207.171 138.525 206.87 138.472Z" fill="#C9EAFF"/>
<path d="M142.997 130.75C147.2 131.494 151.231 128.574 151.999 124.229C152.767 119.883 149.983 115.758 145.78 115.015C141.576 114.271 137.546 117.191 136.778 121.536C136.009 125.882 138.794 130.007 142.997 130.75Z" fill="#C9EAFF"/>
<path d="M207.39 183.363L121.27 168.131C119.873 167.882 118.635 167.071 117.828 165.875C117.021 164.679 116.71 163.196 116.964 161.752L119.086 149.753C119.343 148.309 120.143 147.023 121.312 146.176C122.48 145.33 123.921 144.992 125.318 145.238L211.438 160.47C212.835 160.719 214.072 161.53 214.88 162.726C215.687 163.922 215.998 165.405 215.744 166.849L213.622 178.848C213.365 180.292 212.565 181.578 211.396 182.425C210.228 183.271 208.787 183.609 207.39 183.363Z" fill="#B2C6FA"/>
<path d="M177.18 164.097L151.805 159.609C151.504 159.556 151.237 159.381 151.063 159.124C150.889 158.866 150.823 158.546 150.878 158.235C150.933 157.924 151.105 157.646 151.357 157.464C151.609 157.282 151.919 157.209 152.22 157.262L177.595 161.75C177.896 161.804 178.163 161.978 178.337 162.236C178.511 162.494 178.577 162.813 178.522 163.125C178.467 163.436 178.295 163.713 178.043 163.896C177.791 164.078 177.481 164.151 177.18 164.097Z" fill="#C9EAFF"/>
<path d="M200.443 174.868L150.38 166.013C150.079 165.96 149.812 165.785 149.638 165.527C149.464 165.27 149.397 164.95 149.452 164.639C149.507 164.328 149.68 164.05 149.932 163.868C150.183 163.685 150.494 163.613 150.795 163.666L200.858 172.521C201.159 172.574 201.426 172.749 201.6 173.007C201.774 173.264 201.841 173.584 201.786 173.895C201.731 174.207 201.559 174.484 201.307 174.666C201.055 174.849 200.744 174.921 200.443 174.868Z" fill="#C9EAFF"/>
<path d="M136.57 167.147C140.773 167.89 144.804 164.97 145.572 160.625C146.34 156.28 143.556 152.155 139.353 151.411C135.149 150.668 131.119 153.587 130.351 157.933C129.582 162.278 132.367 166.403 136.57 167.147Z" fill="#C9EAFF"/>
<path d="M200.963 219.76L114.842 204.528C113.446 204.279 112.208 203.468 111.401 202.272C110.594 201.076 110.283 199.593 110.537 198.149L112.659 186.15C112.916 184.706 113.716 183.42 114.884 182.573C116.053 181.727 117.494 181.389 118.891 181.635L205.011 196.867C206.408 197.116 207.645 197.927 208.453 199.123C209.26 200.319 209.571 201.802 209.317 203.246L207.195 215.245C206.938 216.689 206.137 217.975 204.969 218.822C203.801 219.668 202.36 220.006 200.963 219.76Z" fill="#B2C6FA"/>
<path d="M170.753 200.494L145.378 196.006C145.077 195.953 144.81 195.778 144.636 195.521C144.462 195.263 144.395 194.943 144.45 194.632C144.505 194.321 144.678 194.043 144.93 193.861C145.181 193.679 145.492 193.606 145.793 193.659L171.168 198.147C171.469 198.201 171.736 198.375 171.909 198.633C172.083 198.891 172.15 199.21 172.095 199.522C172.04 199.833 171.868 200.11 171.616 200.293C171.364 200.475 171.054 200.548 170.753 200.494Z" fill="#C9EAFF"/>
<path d="M194.016 211.265L143.953 202.41C143.652 202.357 143.385 202.182 143.211 201.924C143.037 201.667 142.97 201.347 143.025 201.036C143.08 200.725 143.253 200.447 143.504 200.265C143.756 200.082 144.067 200.01 144.368 200.063L194.431 208.918C194.732 208.971 194.999 209.146 195.173 209.404C195.347 209.661 195.414 209.981 195.359 210.292C195.304 210.604 195.131 210.881 194.88 211.063C194.628 211.246 194.317 211.318 194.016 211.265Z" fill="#C9EAFF"/>
<path d="M130.143 203.544C134.346 204.287 138.376 201.367 139.145 197.022C139.913 192.677 137.129 188.551 132.926 187.808C128.722 187.065 124.692 189.984 123.924 194.33C123.155 198.675 125.94 202.8 130.143 203.544Z" fill="#C9EAFF"/>
<rect width="97.9621" height="17.3348" rx="8.66741" transform="matrix(0.984762 0.17391 -0.173893 0.984764 106.092 223.352)" fill="#C9EAFF"/>
<path d="M141.79 275.274C139.414 271.732 140.293 266.839 143.752 264.346C147.211 261.852 151.941 262.702 154.317 266.245C156.693 269.787 155.814 274.68 152.355 277.173C148.895 279.667 144.165 278.817 141.79 275.274Z" fill="#042668"/>
<path d="M144.242 273.176C142.861 271.117 143.372 268.273 145.382 266.824C147.393 265.375 150.142 265.869 151.523 267.928C152.903 269.987 152.393 272.831 150.382 274.28C148.372 275.729 145.623 275.235 144.242 273.176Z" fill="#DEFFFF"/>
<rect width="37.0667" height="5.47415" rx="2.73708" transform="matrix(0.984762 0.17391 -0.173893 0.984764 95.0071 255.674)" fill="#5B96DA"/>
<rect width="37.0667" height="5.47415" rx="2.73708" transform="matrix(0.984762 0.17391 -0.173893 0.984764 166.277 268.242)" fill="#5B96DA"/>
</g>
<defs>
<clipPath id="clip0_492_5903">
<rect width="340" height="320" fill="white"/>
</clipPath>
</defs>
</svg>
