<svg width="40" height="40" viewBox="0 0 40 40" fill="none" xmlns="http://www.w3.org/2000/svg">
<g clip-path="url(#clip0_2666_4875)">
<path d="M17.8575 12.186C19.0337 10.9859 20.9663 10.9859 22.1425 12.186L24.9497 15.0503L27.814 17.8575C29.0141 19.0337 29.0141 20.9663 27.814 22.1425L24.9497 24.9497L22.1425 27.814C20.9663 29.0141 19.0337 29.0141 17.8575 27.814L15.0503 24.9497L12.186 22.1425C10.9859 20.9663 10.9859 19.0337 12.186 17.8575L15.0503 15.0503L17.8575 12.186Z" fill="#EC3D5A"/>
<path d="M29.5424 10.4505L29.5423 10.4506L29.5495 10.4576L36.0066 16.7862C37.8068 18.5506 37.8068 21.4494 36.0066 23.2138L29.5495 29.5424L29.5494 29.5423L29.5424 29.5495L23.2138 36.0066C21.4494 37.8068 18.5506 37.8068 16.7862 36.0066L10.4576 29.5495L10.4577 29.5494L10.4505 29.5424L3.99338 23.2138C2.19316 21.4494 2.19316 18.5506 3.99338 16.7862L10.4505 10.4576L10.4506 10.4577L10.4576 10.4505L16.7862 3.99338C18.5506 2.19316 21.4494 2.19316 23.2138 3.99338L29.5424 10.4505Z" stroke="#EC3D5A"/>
</g>
<defs>
<clipPath id="clip0_2666_4875">
<rect width="40" height="40" fill="white"/>
</clipPath>
</defs>
</svg>
